<svg xmlns="http://www.w3.org/2000/svg" width="945" height="1109" viewBox="0 0 945 1109"><style>
    #path-path-0 {
      stroke-dasharray: 100, 10000;
      stroke-dashoffset: 100;
      animation: draw-path 2000ms cubic-bezier(0.68, -0.55, 0.265, 1.55) 0ms forwards;
    }

    @keyframes draw-path {
      to {
        stroke-dashoffset: 0;
      }
    }</style>
<g>
<path d="M 372.88 1031.83 C372.72,1031.38 372.44,1026.22 371.58,1008.00 C371.18,999.47 370.69,991.38 370.49,990.00 C369.09,980.17 368.95,977.00 369.93,977.00 C370.53,977.00 371.00,975.02 371.00,972.50 L 371.00 968.00 L 365.25 967.94 C362.09,967.91 352.30,967.72 343.50,967.51 C334.70,967.30 308.89,966.86 286.15,966.52 L 244.80 965.91 L 241.97 968.88 C240.41,970.51 238.47,973.12 237.65,974.67 C236.84,976.23 235.34,978.40 234.33,979.50 C233.33,980.60 231.38,983.18 230.00,985.24 C228.62,987.30 226.94,988.99 226.25,988.99 C225.56,989.00 225.11,989.40 225.25,989.89 C225.55,990.94 219.83,998.94 218.75,998.98 C217.56,999.01 217.87,997.57 219.53,995.45 C224.15,989.53 233.08,976.72 236.23,971.50 C238.22,968.20 241.73,963.47 244.03,961.00 C246.33,958.53 250.08,953.85 252.36,950.62 C257.52,943.30 259.03,941.21 266.50,931.05 C269.80,926.56 274.52,920.07 277.00,916.62 C279.48,913.18 283.52,907.69 286.00,904.43 C288.48,901.17 290.95,897.77 291.50,896.87 C292.05,895.97 295.32,891.47 298.77,886.87 C302.22,882.27 305.82,877.41 306.77,876.09 C307.72,874.76 309.74,872.11 311.25,870.20 C312.76,868.29 314.00,866.41 314.00,866.02 C314.00,865.63 315.91,863.26 318.25,860.75 C320.59,858.23 322.65,855.57 322.82,854.84 C323.00,854.10 323.93,852.60 324.88,851.50 C325.83,850.40 327.75,847.70 329.15,845.50 C330.55,843.30 332.88,840.38 334.33,839.00 C335.78,837.62 336.97,836.18 336.98,835.79 C337.00,835.01 342.48,827.07 348.27,819.46 C350.34,816.73 354.39,811.25 357.27,807.27 C360.14,803.29 365.42,796.15 369.00,791.41 C372.58,786.66 375.95,782.04 376.50,781.14 C377.05,780.24 379.30,777.16 381.50,774.30 C383.70,771.44 386.62,767.45 388.00,765.44 C389.38,763.43 391.78,760.37 393.35,758.64 C394.92,756.91 397.30,753.64 398.63,751.36 C400.92,747.46 401.04,746.46 400.78,733.98 L 400.50 720.75 L 392.00 731.96 C387.33,738.13 382.26,744.42 380.75,745.95 C379.24,747.47 377.98,749.12 377.96,749.61 C377.94,750.10 376.59,752.06 374.96,753.96 C373.33,755.87 372.00,758.00 372.00,758.71 C372.00,759.42 371.59,760.00 371.08,760.00 C370.58,760.00 365.96,765.47 360.83,772.15 C355.70,778.83 346.76,790.42 340.96,797.90 C335.16,805.38 329.54,812.68 328.46,814.12 C321.68,823.18 311.28,836.40 309.25,838.54 C308.56,839.26 308.00,840.14 308.00,840.49 C308.00,840.84 304.38,845.59 299.95,851.06 C295.52,856.53 292.24,861.00 292.65,861.00 C293.07,861.00 291.83,862.69 289.89,864.75 C287.96,866.81 284.40,871.14 281.98,874.36 C279.57,877.58 277.00,880.45 276.29,880.72 C275.58,880.99 275.00,881.78 275.00,882.47 C275.00,883.15 273.28,885.69 271.18,888.11 C269.07,890.52 267.06,893.29 266.71,894.25 C266.35,895.21 265.60,896.00 265.03,896.00 C264.46,896.00 264.00,896.48 264.00,897.06 C264.00,897.64 260.29,902.70 255.75,908.30 C251.21,913.90 246.43,920.06 245.12,921.99 C243.82,923.92 242.46,925.72 242.12,926.00 C241.77,926.28 239.49,929.20 237.05,932.50 C230.85,940.87 223.12,950.26 221.15,951.79 C220.24,952.50 219.50,953.48 219.50,953.97 C219.50,954.95 214.92,961.42 210.77,966.29 C209.26,968.06 208.02,970.31 208.02,971.31 C208.01,972.30 207.58,972.86 207.06,972.54 C206.54,972.22 205.39,973.47 204.51,975.33 C203.63,977.19 201.58,979.99 199.95,981.54 C198.33,983.10 197.00,984.81 197.00,985.33 C197.00,985.86 195.09,988.37 192.75,990.91 C190.41,993.45 187.60,996.81 186.50,998.38 C182.30,1004.39 173.56,1014.00 172.31,1014.00 C170.25,1014.00 170.77,1012.33 173.50,1010.18 C174.88,1009.10 176.00,1007.90 176.00,1007.51 C176.00,1006.36 193.54,984.07 196.09,982.00 C196.42,981.72 197.24,980.48 197.89,979.24 C198.55,977.99 201.13,974.47 203.62,971.40 C206.12,968.34 208.01,965.69 207.83,965.52 C207.65,965.35 196.93,964.98 184.00,964.69 C171.07,964.40 160.27,964.10 160.00,964.02 C159.73,963.93 150.37,963.88 139.20,963.89 C121.74,963.91 118.82,963.70 118.31,962.36 C117.74,960.88 119.75,958.73 120.99,959.49 C121.31,959.69 138.66,960.11 159.54,960.43 C180.42,960.74 200.28,961.27 203.68,961.61 C208.10,962.04 210.40,961.83 211.79,960.86 C212.86,960.11 213.68,959.20 213.62,958.82 C213.55,958.45 215.03,956.43 216.89,954.32 C218.76,952.22 221.29,948.92 222.51,947.00 C223.74,945.08 225.70,942.64 226.87,941.60 C228.04,940.55 229.00,939.11 229.00,938.40 C229.00,937.69 229.83,936.53 230.84,935.81 C231.86,935.09 232.87,934.00 233.09,933.39 C233.32,932.78 234.50,930.98 235.73,929.39 C236.96,927.80 241.59,921.78 246.04,916.00 C250.48,910.22 254.65,904.82 255.31,904.00 C255.96,903.17 258.05,900.47 259.94,898.00 C261.84,895.52 264.09,892.75 264.94,891.83 C265.80,890.91 267.82,888.32 269.44,886.08 C271.06,883.84 272.77,882.00 273.25,882.00 C273.73,882.00 273.86,881.59 273.55,881.08 C273.24,880.57 273.57,879.56 274.29,878.83 C276.91,876.17 284.03,866.01 283.77,865.32 C283.62,864.92 270.90,864.49 255.50,864.35 C150.53,863.43 122.88,863.05 122.00,862.50 C118.14,860.11 124.61,859.92 188.75,860.47 C251.89,861.01 281.28,861.18 286.78,861.05 C288.04,861.02 289.35,860.25 289.70,859.33 C290.06,858.41 291.06,856.86 291.92,855.90 C292.79,854.93 293.96,853.55 294.53,852.82 C295.09,852.09 297.79,848.63 300.53,845.13 C303.26,841.62 307.30,836.34 309.50,833.39 C313.65,827.83 333.58,801.71 335.72,799.03 C336.39,798.19 339.93,793.67 343.58,789.00 C347.23,784.33 350.62,780.35 351.11,780.17 C351.60,779.98 352.00,779.18 352.00,778.37 C352.00,776.26 356.81,771.76 358.16,772.60 C358.86,773.03 359.04,772.87 358.61,772.18 C357.97,771.15 359.43,767.23 360.90,766.00 C361.23,765.72 362.26,764.60 363.18,763.50 C364.85,761.51 364.76,761.50 341.43,761.67 C324.13,761.79 318.00,761.53 317.98,760.67 C317.97,759.81 317.76,759.83 317.20,760.71 C316.64,761.59 310.98,761.96 296.74,762.04 C285.92,762.10 276.60,761.87 276.03,761.52 C275.46,761.17 275.00,761.36 275.00,761.94 C275.00,762.66 264.74,763.00 242.61,763.00 L 210.22 763.00 L 204.36 769.18 C199.18,774.63 179.76,794.42 147.13,827.49 C137.91,836.83 135.00,839.23 135.00,837.47 C135.00,837.18 136.46,835.36 138.25,833.42 C151.30,819.24 180.74,788.39 194.50,774.47 C201.10,767.79 212.57,755.90 220.00,748.05 C227.43,740.19 237.77,729.41 243.00,724.08 C251.60,715.31 274.94,691.19 305.21,659.79 C311.42,653.35 318.52,645.82 321.00,643.04 C323.47,640.27 326.06,638.00 326.75,638.00 C327.44,638.00 327.89,637.63 327.75,637.17 C327.61,636.72 329.08,634.77 331.00,632.84 C332.92,630.91 342.83,620.67 353.00,610.07 C363.17,599.48 372.81,589.61 374.42,588.15 C376.02,586.69 378.05,584.61 378.92,583.52 C379.79,582.42 384.64,577.33 389.69,572.20 C399.84,561.89 399.68,562.30 399.18,548.71 L 398.86 539.91 L 377.91 560.71 C353.31,585.13 327.54,610.45 312.92,624.57 C307.19,630.10 300.41,636.85 297.85,639.57 C287.41,650.64 234.24,703.00 233.40,703.02 C232.91,703.04 231.17,704.84 229.55,707.04 C227.92,709.23 221.88,715.41 216.12,720.76 C210.36,726.12 205.16,731.10 204.57,731.84 C203.98,732.58 201.29,735.28 198.60,737.84 C190.91,745.14 186.02,750.07 179.00,757.57 C175.43,761.39 171.21,765.41 169.64,766.51 C166.16,768.93 165.05,770.01 162.61,773.39 C161.57,774.83 159.79,776.00 158.65,776.00 C156.90,776.00 157.18,775.43 160.54,772.20 C162.72,770.12 165.49,767.30 166.69,765.95 L 168.88 763.50 L 148.44 763.72 C131.00,763.91 128.00,763.73 128.00,762.47 C128.00,761.66 128.56,760.94 129.25,760.87 C131.12,760.68 151.08,760.22 162.59,760.10 L 172.68 760.00 L 181.09 751.47 C185.72,746.78 192.29,740.20 195.69,736.85 C199.10,733.50 222.80,710.00 248.37,684.63 C273.94,659.26 296.93,636.52 299.45,634.10 C301.98,631.69 303.84,629.51 303.60,629.27 C303.36,629.02 297.61,628.88 290.83,628.95 C279.20,629.06 259.11,629.08 240.00,628.99 C235.32,628.97 223.67,628.96 214.10,628.98 C201.65,628.99 196.26,628.64 195.16,627.75 C193.93,626.75 193.77,626.75 194.37,627.75 C194.94,628.70 193.42,629.00 187.98,629.00 C182.71,629.00 180.94,628.67 181.25,627.75 C181.84,625.96 204.06,625.50 205.18,627.25 C205.81,628.25 205.97,628.25 205.98,627.25 C206.00,626.30 209.96,626.00 222.43,626.00 L 238.85 626.00 L 239.32 611.75 C239.58,603.91 240.07,594.35 240.40,590.50 C241.90,572.98 242.14,569.90 242.66,560.50 C242.99,554.73 243.71,550.19 244.36,549.77 C245.17,549.25 245.11,549.03 244.19,549.02 C243.47,549.01 243.11,548.64 243.38,548.19 C243.83,547.46 245.10,533.15 245.39,525.50 C245.45,523.85 245.95,522.17 246.50,521.77 C247.05,521.37 263.70,520.96 283.50,520.87 C303.30,520.77 321.52,520.59 324.00,520.45 C326.48,520.31 330.47,520.15 332.87,520.10 L 337.24 520.00 L 336.76 501.53 C336.49,491.37 336.50,482.83 336.79,482.55 C337.07,482.26 337.50,476.82 337.74,470.44 C338.14,460.04 338.00,458.72 336.34,457.51 C335.33,456.77 334.88,455.79 335.33,455.33 C336.52,454.14 382.00,454.10 382.00,455.29 C382.00,455.83 382.56,455.78 383.30,455.17 C384.03,454.56 387.50,454.22 391.29,454.40 L 397.98 454.70 L 397.49 357.35 C397.09,278.46 397.24,260.00 398.28,260.00 C399.28,260.00 399.63,264.94 399.85,282.25 C400.01,294.49 400.30,312.83 400.51,323.00 C401.68,381.53 402.04,443.97 401.23,447.55 C400.72,449.77 400.65,452.52 401.07,453.66 C402.12,456.49 402.94,496.97 403.52,574.50 C403.79,610.25 404.22,654.58 404.48,673.00 C404.74,691.42 405.23,740.92 405.58,783.00 C406.65,911.33 406.74,899.43 404.74,899.81 C403.16,900.12 402.99,898.87 402.85,885.82 C402.77,877.95 402.61,870.83 402.50,870.00 C402.39,869.17 402.23,867.78 402.15,866.89 C402.02,865.45 397.80,865.27 360.75,865.10 L 319.50 864.91 L 315.79 869.70 C313.75,872.34 308.81,879.00 304.81,884.50 C300.81,890.00 297.19,894.95 296.76,895.50 C296.33,896.05 294.64,898.30 293.00,900.50 C291.36,902.70 289.64,904.97 289.16,905.55 C288.69,906.12 286.59,909.05 284.49,912.05 C282.40,915.05 280.39,917.72 280.03,918.00 C279.66,918.28 277.37,921.20 274.93,924.50 C272.49,927.80 270.16,930.65 269.75,930.83 C269.34,931.02 268.99,931.69 268.98,932.33 C268.98,932.97 267.74,934.96 266.23,936.75 C262.73,940.92 260.62,943.65 257.54,948.00 C256.18,949.92 253.49,953.73 251.56,956.44 C249.63,959.16 248.17,961.51 248.31,961.65 C248.65,961.99 280.93,962.84 320.00,963.54 C337.33,963.84 356.19,964.28 361.93,964.50 C373.72,964.96 373.30,965.15 385.59,954.27 C391.37,949.15 414.40,929.95 423.10,923.00 C425.51,921.08 431.62,916.01 436.69,911.75 C441.75,907.49 446.11,904.00 446.36,904.00 C446.61,904.00 448.32,902.66 450.16,901.02 C454.25,897.38 467.61,886.25 476.01,879.50 C479.43,876.75 483.91,873.04 485.98,871.25 C488.05,869.46 490.22,868.00 490.79,868.00 C491.80,868.00 492.10,849.74 492.18,782.50 L 492.20 760.50 L 466.85 760.47 C452.91,760.45 440.94,760.09 440.25,759.66 C439.54,759.22 439.00,759.35 439.00,759.98 C439.00,760.75 438.43,760.77 437.06,760.03 C435.84,759.38 434.90,759.35 434.53,759.95 C434.20,760.48 433.28,760.66 432.47,760.35 C430.93,759.76 430.94,759.54 430.94,813.50 C430.94,821.47 430.95,835.91 430.97,845.58 L 431.00 863.16 L 438.75 862.97 C459.84,862.46 475.12,863.00 474.37,864.25 C473.85,865.11 474.14,865.08 475.30,864.14 C477.07,862.70 482.00,863.31 482.00,864.98 C482.00,865.53 471.87,865.90 456.91,865.88 C443.11,865.86 431.62,866.04 431.38,866.29 C431.13,866.54 430.89,872.86 430.85,880.35 C430.79,890.42 430.42,894.24 429.42,895.06 C428.38,895.93 427.95,895.65 427.48,893.77 C426.71,890.69 426.40,627.17 427.17,624.50 C427.48,623.40 427.36,621.77 426.90,620.87 C426.24,619.59 425.97,575.96 426.19,507.00 C426.19,505.62 426.18,494.15 426.15,481.50 C426.13,468.85 426.13,457.38 426.15,456.00 C426.18,454.62 426.14,433.92 426.08,410.00 C426.01,386.08 425.97,364.48 426.00,362.00 C426.03,359.52 426.00,352.33 425.93,346.00 C425.86,339.67 425.83,326.17 425.86,316.00 C425.89,305.83 425.90,296.60 425.89,295.50 C425.67,272.03 426.20,243.99 426.88,243.57 C427.37,243.27 427.98,243.82 428.23,244.79 C428.67,246.44 429.05,288.88 429.37,368.25 L 429.50 402.00 L 432.50 402.13 C438.43,402.40 465.38,401.95 465.76,401.58 C465.97,401.36 466.22,396.43 466.32,390.60 C466.42,384.78 466.73,380.01 467.00,380.00 C467.27,380.00 467.50,375.08 467.50,369.08 C467.50,363.08 467.81,357.85 468.19,357.48 C468.57,357.10 473.07,356.88 478.19,356.99 C483.31,357.10 488.17,357.15 489.00,357.11 C489.83,357.06 493.05,357.03 496.17,357.04 C499.29,357.05 502.05,356.71 502.30,356.28 C502.55,355.85 503.06,349.46 503.43,342.07 C503.80,334.68 504.40,328.15 504.77,327.57 C505.13,326.98 505.32,325.38 505.20,324.00 C504.69,318.32 502.41,318.54 558.62,318.70 C587.07,318.77 612.04,318.54 614.11,318.17 C616.99,317.66 619.66,315.76 625.48,310.10 L 633.08 302.69 L 632.54 277.60 C632.24,263.79 631.78,232.70 631.51,208.50 C631.25,184.30 630.77,157.91 630.46,149.84 C630.10,140.66 630.25,134.96 630.87,134.58 C631.41,134.25 632.10,134.76 632.40,135.74 C633.09,137.98 634.28,178.37 635.48,240.00 C635.78,255.12 636.33,274.48 636.70,283.00 C637.39,298.75 637.42,300.28 637.15,310.00 C636.93,318.28 637.49,353.48 638.27,380.50 C638.66,393.70 639.25,427.00 639.58,454.50 C640.13,498.79 640.35,509.35 640.87,516.31 C640.94,517.30 641.34,517.91 641.76,517.65 C642.18,517.39 643.39,517.81 644.45,518.59 C646.00,519.72 646.07,520.00 644.81,520.00 C642.83,520.00 641.78,523.73 643.09,526.16 C643.78,527.45 643.73,528.00 642.91,528.00 C642.06,528.00 642.05,528.35 642.87,529.34 C643.48,530.08 643.79,530.88 643.55,531.12 C642.86,531.81 642.84,540.66 643.51,552.50 C643.85,558.55 644.28,570.70 644.46,579.50 C644.64,588.30 644.95,596.31 645.15,597.31 C645.42,598.69 644.00,599.76 639.00,601.92 C635.42,603.46 628.52,606.59 623.65,608.86 C618.78,611.14 614.54,613.00 614.23,613.00 C613.92,613.00 609.58,614.97 604.58,617.37 C599.59,619.78 592.33,623.22 588.45,625.01 L 581.41 628.27 L 581.22 669.30 C581.09,696.27 581.37,710.75 582.05,711.56 C583.28,713.04 580.71,715.03 570.88,720.22 C567.23,722.14 562.73,724.81 560.88,726.15 C559.02,727.49 553.45,730.59 548.50,733.04 C543.55,735.49 539.27,737.81 538.98,738.19 C538.69,738.57 537.34,739.37 535.98,739.98 C534.62,740.59 532.60,741.63 531.50,742.29 C522.67,747.62 511.07,754.00 510.21,754.00 C509.64,754.00 509.02,754.36 508.83,754.79 C508.25,756.17 497.55,761.72 496.31,761.29 C495.40,760.97 495.26,773.37 495.70,814.73 L 496.28 868.58 L 493.30 871.04 C491.66,872.39 488.57,874.85 486.43,876.50 C484.30,878.15 479.62,881.98 476.03,885.02 C466.19,893.33 454.58,902.80 434.58,918.83 C424.64,926.79 415.13,934.48 413.46,935.91 C411.79,937.33 408.69,939.85 406.56,941.50 C404.44,943.15 399.58,947.09 395.76,950.25 C391.94,953.41 388.52,956.00 388.16,956.01 C387.80,956.01 385.06,958.26 382.08,961.01 C379.10,963.75 376.10,966.00 375.42,966.00 C374.45,966.00 374.31,971.16 374.79,989.75 C375.74,1026.34 375.68,1031.27 374.25,1031.75 C373.56,1031.98 372.95,1032.02 372.88,1031.83 ZM 402.06 852.50 C402.16,836.59 401.39,764.91 401.08,761.68 C401.04,761.23 399.77,761.01 398.26,761.18 C396.16,761.43 394.36,763.15 390.51,768.63 C387.76,772.55 383.25,778.72 380.50,782.34 C377.75,785.96 373.48,791.73 371.00,795.17 C360.42,809.87 341.70,834.53 340.89,834.83 C340.40,835.02 340.00,835.61 340.00,836.16 C340.00,837.38 328.34,853.47 325.25,856.51 C322.73,859.00 322.39,860.57 324.25,861.24 C324.94,861.49 341.46,861.79 360.98,861.91 C380.49,862.02 396.54,862.20 396.64,862.31 C396.75,862.41 398.00,862.50 399.42,862.50 L 402.00 862.50 L 402.06 852.50 ZM 311.00 758.61 L 366.50 758.11 L 370.00 754.12 C375.23,748.16 384.00,737.10 384.00,736.47 C384.00,736.16 384.44,735.37 384.98,734.71 C385.51,734.04 388.33,730.57 391.23,726.99 C401.76,713.98 400.72,720.33 400.27,672.02 C400.05,648.66 399.79,629.45 399.68,629.35 C399.58,629.24 392.97,629.05 385.00,628.91 C376.04,628.75 370.22,628.24 369.77,627.58 C369.27,626.85 369.03,626.91 369.02,627.75 C369.00,628.69 365.45,629.00 354.63,629.00 L 340.26 629.00 L 334.38 635.08 C331.15,638.42 324.90,644.86 320.50,649.40 C316.10,653.94 300.12,670.42 285.00,686.03 C269.88,701.63 250.04,722.07 240.92,731.45 C231.80,740.83 222.04,750.99 219.22,754.04 L 214.10 759.58 L 234.80 759.34 C246.19,759.21 280.48,758.88 311.00,758.61 ZM 478.92 757.16 L 497.22 757.25 L 500.36 754.49 C502.09,752.97 504.74,751.30 506.25,750.77 C507.76,750.24 509.00,749.40 509.00,748.90 C509.00,748.41 509.90,748.00 511.00,748.00 C512.10,748.00 513.00,747.55 513.00,747.00 C513.00,746.45 513.87,746.00 514.93,746.00 C517.16,746.00 532.56,738.52 533.52,736.97 C533.87,736.40 538.96,733.48 544.83,730.46 C550.70,727.45 556.39,724.43 557.48,723.75 C565.09,718.94 570.14,716.00 570.77,716.00 C571.17,715.99 572.76,714.98 574.29,713.75 L 577.09 711.50 L 577.67 682.00 C578.00,665.78 578.30,650.70 578.34,648.50 C578.39,646.30 578.33,641.01 578.22,636.75 L 578.00 629.00 L 572.25 628.98 C569.09,628.98 565.83,628.53 565.00,628.00 C563.97,627.34 565.55,627.13 570.00,627.34 C575.23,627.57 577.38,627.18 581.00,625.31 C583.47,624.04 593.60,619.15 603.50,614.46 C613.40,609.76 623.30,605.06 625.50,604.01 C627.70,602.96 630.17,601.86 631.00,601.56 C631.83,601.26 633.17,600.61 634.00,600.12 C634.83,599.63 636.63,598.71 638.02,598.07 L 640.53 596.91 L 640.40 558.96 C640.32,538.05 640.65,521.00 641.13,521.00 C641.61,521.00 642.00,520.63 642.00,520.17 C642.00,519.37 621.02,519.46 591.75,520.38 C579.27,520.78 575.44,520.22 577.36,518.31 C578.53,517.14 616.46,517.19 617.94,518.36 C618.74,518.99 619.11,519.04 618.78,518.48 C618.38,517.82 621.30,517.44 627.08,517.41 C632.75,517.37 636.04,517.74 636.10,518.43 C636.15,519.02 636.52,518.38 636.92,517.00 C637.71,514.25 637.35,488.60 636.12,459.71 L 636.00 456.92 L 628.32 457.21 L 620.65 457.50 L 612.57 468.17 C608.13,474.04 600.00,485.03 594.50,492.59 C589.00,500.16 583.49,507.33 582.25,508.54 C581.01,509.74 579.99,511.13 579.98,511.61 C579.97,512.10 579.08,513.62 578.00,515.00 C576.92,516.38 576.03,518.29 576.02,519.25 C576.01,520.21 575.34,521.00 574.52,521.00 C573.71,521.00 572.27,522.24 571.32,523.75 C570.36,525.26 568.67,527.65 567.54,529.06 C566.42,530.47 564.60,532.87 563.50,534.39 C558.49,541.31 547.01,556.65 545.82,558.01 C545.09,558.85 542.74,562.00 540.60,565.01 C538.45,568.03 536.31,570.65 535.85,570.83 C535.38,571.02 535.00,571.66 535.00,572.27 C535.00,572.87 530.95,578.67 526.00,585.16 C521.05,591.65 517.00,597.21 517.00,597.52 C517.00,597.83 516.55,598.63 516.01,599.29 C509.68,606.99 496.00,625.35 496.00,626.14 C496.00,626.34 510.92,626.50 529.17,626.50 C554.78,626.50 562.43,626.78 562.75,627.75 C563.07,628.72 557.44,628.99 536.83,628.96 C522.35,628.94 506.67,628.94 502.00,628.97 L 493.50 629.01 L 491.00 632.68 C489.62,634.70 488.04,636.84 487.48,637.43 C486.50,638.46 465.95,666.31 459.24,675.69 C457.44,678.21 453.61,683.42 450.74,687.28 C447.86,691.13 444.60,695.52 443.50,697.03 C442.40,698.54 440.26,701.40 438.75,703.39 C429.96,714.94 430.73,712.13 430.83,732.35 C430.88,742.33 430.94,752.15 430.96,754.18 L 431.00 757.85 L 441.25 757.64 C446.89,757.53 453.08,757.70 455.00,758.04 C456.92,758.37 458.98,758.29 459.56,757.86 C460.14,757.43 468.85,757.11 478.92,757.16 ZM 401.00 756.38 C401.00,755.05 400.73,754.98 399.50,756.00 C398.67,756.68 398.00,757.41 398.00,757.62 C398.00,757.83 398.67,758.00 399.50,758.00 C400.33,758.00 401.00,757.27 401.00,756.38 ZM 434.13 703.00 C434.58,703.00 435.60,701.76 436.39,700.25 C437.18,698.74 438.75,696.53 439.87,695.34 C440.99,694.15 443.47,690.78 445.38,687.84 C447.30,684.90 450.02,681.19 451.43,679.59 C452.84,678.00 454.00,676.39 454.00,676.03 C454.00,675.67 454.90,674.41 456.01,673.22 C457.11,672.04 459.03,669.59 460.26,667.78 C463.39,663.22 470.60,653.64 476.25,646.56 C478.86,643.28 481.00,640.04 481.00,639.35 C481.00,638.66 481.59,637.74 482.30,637.30 C483.02,636.86 484.63,634.81 485.89,632.75 L 488.16 629.00 L 479.69 629.00 C471.23,629.00 471.20,629.01 468.10,632.53 C466.40,634.48 465.00,636.39 465.00,636.78 C465.00,637.18 463.96,638.71 462.68,640.19 C461.41,641.67 459.50,644.08 458.43,645.54 C455.76,649.21 451.34,654.92 448.39,658.50 C447.03,660.15 443.02,665.33 439.48,670.00 C435.94,674.67 432.55,679.08 431.95,679.79 C431.33,680.52 430.75,686.13 430.60,692.79 C430.33,705.64 430.76,708.71 432.33,705.18 C432.87,703.98 433.68,703.00 434.13,703.00 ZM 440.40 662.75 C451.66,647.88 461.57,635.05 464.00,632.19 C465.07,630.92 466.15,629.57 466.38,629.19 C466.62,628.81 458.98,628.63 449.41,628.79 C435.73,629.03 431.97,628.81 431.88,627.79 C431.81,627.08 431.43,628.75 431.05,631.50 C430.66,634.25 430.45,644.38 430.58,654.00 C430.85,674.02 430.85,674.00 431.44,674.00 C431.69,674.00 435.72,668.94 440.40,662.75 ZM 319.17 614.26 C325.40,608.08 345.91,587.78 364.75,569.14 L 399.00 535.25 L 399.00 529.12 L 399.00 523.00 L 393.25 522.96 C366.13,522.75 338.16,523.51 337.20,524.47 C336.99,524.68 335.30,524.01 333.45,522.97 C331.22,521.72 330.26,521.52 330.60,522.39 C330.98,523.39 329.29,523.71 323.30,523.74 C319.01,523.76 314.66,523.33 313.63,522.79 C312.31,522.09 311.96,522.12 312.44,522.90 C313.46,524.55 290.83,524.40 289.05,522.75 C287.98,521.75 287.85,521.75 288.41,522.75 C288.97,523.73 285.16,524.00 270.81,524.01 C260.74,524.02 251.53,524.29 250.34,524.61 C248.34,525.14 248.14,526.04 247.50,536.84 C247.12,543.25 246.63,550.30 246.43,552.50 C246.22,554.70 245.78,562.12 245.46,569.00 C245.14,575.88 244.46,586.45 243.95,592.50 C243.44,598.55 243.01,608.53 243.01,614.67 L 243.00 625.85 L 254.04 625.79 C260.11,625.77 265.24,625.91 265.45,626.12 C265.66,626.33 275.28,626.28 286.84,626.00 L 307.85 625.50 L 319.17 614.26 ZM 394.31 626.03 L 400.12 626.00 L 399.63 601.25 C399.36,587.64 399.10,574.47 399.05,572.00 C399.01,569.53 398.64,568.02 398.23,568.65 C397.83,569.29 388.43,579.19 377.35,590.65 C366.27,602.12 354.23,614.65 350.59,618.50 L 343.97 625.50 L 354.73 626.00 C360.65,626.28 370.67,626.40 377.00,626.28 C383.33,626.16 391.11,626.05 394.31,626.03 ZM 471.87 621.62 C480.95,610.24 487.25,602.21 489.77,598.82 C500.96,583.73 507.14,576.00 508.00,576.00 C508.55,576.00 509.00,575.50 509.00,574.88 C509.00,573.61 513.77,566.88 522.47,555.87 C525.79,551.67 530.30,545.86 532.50,542.97 C534.70,540.07 539.31,534.18 542.75,529.89 C546.19,525.60 549.00,521.80 549.00,521.44 C549.00,521.08 534.71,521.04 517.25,521.34 C499.79,521.65 476.25,521.93 464.94,521.95 L 444.37 522.00 L 437.17 529.18 L 429.96 536.35 L 430.08 581.14 L 430.20 625.93 L 439.85 626.21 C445.16,626.37 453.72,626.43 458.87,626.33 L 468.24 626.17 L 471.87 621.62 ZM 493.23 622.90 C494.75,621.16 496.00,619.45 496.00,619.11 C496.01,618.78 497.36,617.06 499.00,615.30 C500.65,613.55 502.00,611.74 502.00,611.29 C502.00,610.85 503.12,609.27 504.50,607.78 C505.88,606.30 507.00,604.76 507.00,604.36 C507.00,603.96 508.71,601.57 510.81,599.06 C512.90,596.55 516.84,591.35 519.56,587.50 C522.27,583.65 526.52,577.78 529.00,574.46 C531.47,571.14 534.30,567.32 535.27,565.96 C540.13,559.22 548.39,548.12 550.79,545.11 C552.28,543.25 553.68,541.24 553.90,540.66 C554.12,540.07 554.68,539.12 555.14,538.55 C555.61,537.97 557.57,535.47 559.50,533.00 C561.43,530.53 563.38,528.04 563.84,527.47 C566.33,524.37 568.04,521.07 567.79,519.87 C567.63,519.11 568.04,518.61 568.71,518.74 C569.38,518.87 571.26,517.07 572.89,514.74 C574.52,512.41 576.90,509.36 578.18,507.96 C580.99,504.89 585.00,499.31 585.00,498.47 C585.00,498.13 585.56,497.26 586.25,496.54 C588.43,494.24 591.00,490.99 591.00,490.53 C591.00,490.29 592.12,488.97 593.50,487.59 C594.88,486.22 596.00,484.40 596.00,483.55 C596.00,482.70 596.34,481.99 596.75,481.97 C597.16,481.95 599.75,478.79 602.50,474.95 C605.25,471.10 609.21,465.60 611.30,462.73 L 615.11 457.50 L 611.00 456.79 C606.94,456.09 602.00,457.18 602.00,458.78 C602.00,459.24 600.54,461.23 598.75,463.21 C596.96,465.19 595.05,467.47 594.50,468.28 C591.67,472.43 584.56,482.06 581.25,486.22 C575.87,492.98 559.75,513.80 558.13,516.08 C556.83,517.89 557.01,518.00 561.38,518.00 C564.82,518.00 566.00,518.38 566.00,519.50 C566.00,521.34 561.94,521.51 560.08,519.75 C559.06,518.80 558.65,518.78 558.31,519.69 C558.07,520.35 557.32,520.68 556.64,520.42 C555.07,519.81 554.85,520.07 533.57,548.00 C523.72,560.92 512.93,574.98 509.58,579.24 C506.24,583.49 501.25,589.96 498.50,593.60 C493.07,600.80 488.08,607.16 484.97,610.83 C483.89,612.12 483.00,613.48 483.00,613.86 C483.00,614.24 481.70,615.98 480.11,617.72 C478.52,619.46 476.32,622.15 475.22,623.69 L 473.22 626.50 L 481.84 626.29 C490.16,626.09 490.55,625.97 493.23,622.90 ZM 437.43 521.89 C437.16,521.45 437.91,520.59 439.08,519.96 C440.26,519.33 445.33,514.49 450.36,509.22 C466.28,492.51 470.75,488.22 472.92,487.53 C474.08,487.16 474.77,486.44 474.46,485.93 C473.94,485.10 484.78,473.51 509.25,448.72 C514.06,443.85 518.00,439.57 518.00,439.21 C518.00,438.05 526.45,431.00 527.83,431.00 C528.57,431.00 528.97,430.44 528.74,429.75 C528.51,429.06 530.99,425.72 534.26,422.33 C537.53,418.93 540.86,415.22 541.66,414.08 C542.46,412.93 543.84,412.00 544.72,412.00 C545.61,412.00 546.10,411.76 545.80,411.47 C545.51,411.18 548.93,407.18 553.39,402.58 C557.85,397.98 563.15,392.48 565.18,390.36 C567.20,388.24 570.35,385.07 572.18,383.32 C574.00,381.56 582.03,373.29 590.00,364.94 C597.97,356.58 610.35,343.69 617.50,336.29 C630.68,322.63 634.53,316.75 633.32,312.12 C633.02,310.95 632.51,310.00 632.19,310.00 C631.87,310.00 629.30,312.36 626.48,315.25 C623.65,318.14 614.40,327.28 605.92,335.56 C597.44,343.84 588.88,352.39 586.89,354.56 C584.91,356.73 575.10,366.38 565.10,376.00 C555.10,385.62 525.45,414.81 499.21,440.85 C472.97,466.89 446.66,492.99 440.75,498.85 L 430.00 509.50 L 430.00 519.95 L 430.00 530.41 L 433.96 526.54 C436.14,524.41 437.70,522.32 437.43,521.89 ZM 397.74 518.67 C398.16,518.02 398.50,504.12 398.50,487.76 L 398.50 458.02 L 394.50 457.20 C392.30,456.75 390.27,456.71 389.99,457.11 C389.71,457.51 378.77,457.73 365.68,457.61 C352.00,457.48 341.64,457.77 341.31,458.30 C341.00,458.81 340.69,472.91 340.62,489.65 L 340.50 520.07 L 368.74 519.95 C389.04,519.87 397.20,519.51 397.74,518.67 ZM 550.69 517.99 C551.34,518.00 554.04,515.08 556.69,511.50 C559.34,507.93 561.84,505.00 562.25,505.00 C562.66,505.00 563.01,504.44 563.03,503.75 C563.05,503.06 564.62,500.95 566.53,499.05 C568.43,497.16 570.25,494.79 570.56,493.80 C570.88,492.81 571.55,492.00 572.07,492.00 C572.58,492.00 573.00,491.35 573.00,490.55 C573.00,489.75 573.56,488.74 574.26,488.30 C575.40,487.57 585.39,474.86 589.00,469.55 C589.83,468.33 592.45,465.01 594.84,462.17 L 599.18 457.00 L 553.01 457.09 L 506.83 457.17 L 502.83 461.34 C500.64,463.63 492.69,471.81 485.17,479.52 C456.39,509.03 448.00,517.81 448.00,518.43 C448.00,518.78 470.84,518.82 498.75,518.52 C526.66,518.22 550.04,517.98 550.69,517.99 ZM 477.00 457.50 C477.00,457.50 475.88,457.41 474.50,457.29 C471.46,457.04 473.61,457.04 449.75,457.29 L 430.00 457.50 L 430.00 480.93 L 430.00 504.35 L 453.50 480.93 C466.42,468.04 476.99,457.50 477.00,457.50 ZM 443.30 454.01 C447.81,454.08 458.02,454.11 466.00,454.07 L 480.50 454.00 L 505.49 429.38 L 530.49 404.75 L 480.72 405.23 C453.35,405.49 430.74,405.92 430.49,406.18 C429.44,407.23 429.88,453.46 430.94,453.81 C431.53,454.01 431.73,454.63 431.39,455.19 C431.03,455.76 431.69,455.70 432.93,455.04 C434.14,454.39 438.72,453.94 443.30,454.01 ZM 588.70 454.01 C601.57,454.00 601.92,453.94 603.20,451.61 C604.45,449.31 613.70,436.90 617.62,432.27 C618.65,431.04 621.08,427.89 623.00,425.27 C624.92,422.65 627.34,419.60 628.36,418.50 C631.88,414.70 635.00,409.03 635.00,406.41 L 635.00 403.79 L 596.47 404.24 L 557.94 404.69 L 554.84 407.59 C553.13,409.19 549.66,412.72 547.12,415.44 C544.58,418.15 535.41,427.59 526.75,436.41 C518.09,445.23 511.00,452.76 511.00,453.15 C511.00,454.41 513.91,454.50 544.92,454.26 C561.74,454.13 581.44,454.01 588.70,454.01 ZM 620.59 450.23 C622.29,448.18 624.81,444.70 626.21,442.50 C627.60,440.30 629.70,437.64 630.87,436.60 C632.04,435.55 633.00,434.14 633.00,433.47 C633.00,432.80 633.60,431.75 634.33,431.14 C635.66,430.04 636.03,418.70 634.78,417.45 C634.46,417.13 632.95,418.59 631.41,420.68 C616.86,440.57 610.82,447.96 609.08,447.98 C608.30,447.99 607.97,448.30 608.34,448.67 C608.71,449.04 608.32,450.39 607.48,451.67 L 605.95 454.00 L 611.73 453.98 C617.17,453.96 617.68,453.75 620.59,450.23 ZM 636.25 452.75 C636.11,452.34 636.00,448.62 636.00,444.50 C636.00,438.57 635.69,437.00 634.53,437.00 C633.71,437.00 633.29,437.59 633.58,438.34 C633.86,439.08 632.72,441.16 631.05,442.95 C629.37,444.74 628.00,446.46 628.00,446.76 C628.00,447.06 626.84,448.84 625.41,450.70 L 622.83 454.10 L 629.66 453.80 C633.42,453.63 636.39,453.16 636.25,452.75 ZM 595.58 401.00 C620.01,401.00 627.02,401.28 627.08,402.25 C627.14,403.25 627.26,403.25 627.66,402.25 C627.94,401.56 629.72,401.00 631.61,401.00 L 635.06 401.00 L 634.67 380.48 C634.46,369.19 634.10,359.76 633.87,359.54 C633.47,359.14 619.35,358.81 607.96,358.94 L 602.42 359.00 L 590.27 371.25 C564.03,397.68 562.03,399.90 562.71,401.69 C563.12,402.75 563.52,402.95 563.77,402.20 C564.07,401.30 572.05,401.00 595.58,401.00 ZM 537.47 397.75 C539.30,395.69 541.25,394.00 541.79,394.00 C542.33,394.00 543.54,392.82 544.49,391.37 C545.44,389.93 552.90,382.13 561.08,374.05 L 575.95 359.36 L 565.97 359.43 C560.49,359.47 556.00,359.18 556.00,358.78 C556.00,358.39 555.26,358.35 554.36,358.69 C553.24,359.12 552.87,358.88 553.20,357.91 C553.56,356.81 556.52,356.44 566.57,356.24 L 579.47 355.99 L 588.04 347.46 C592.75,342.77 596.92,339.25 597.30,339.63 C597.69,340.02 598.00,339.69 598.00,338.91 C598.00,337.29 608.31,327.00 609.93,327.00 C610.52,327.00 610.89,326.58 610.75,326.07 C610.61,325.56 611.40,324.45 612.50,323.60 C614.32,322.20 612.71,322.06 594.50,321.97 C564.33,321.83 508.62,322.05 508.35,322.32 C507.67,323.00 506.88,332.99 506.64,344.17 L 506.36 356.83 L 529.61 356.33 C552.55,355.84 552.85,355.86 552.33,357.85 C551.81,359.83 551.05,359.87 511.15,359.92 C488.79,359.95 469.92,359.98 469.21,359.99 C468.22,360.00 468.18,360.48 469.04,362.07 C469.75,363.39 470.09,370.22 469.99,380.82 C469.90,390.00 469.87,398.55 469.92,399.82 L 470.00 402.15 L 502.07 401.82 L 534.13 401.50 L 537.47 397.75 ZM 631.80 355.18 C634.04,354.76 634.09,354.48 633.96,343.62 C633.75,325.63 634.70,325.83 619.87,340.63 C612.79,347.69 607.00,354.05 607.00,354.77 C607.00,355.76 609.59,356.01 618.25,355.83 C624.44,355.71 630.53,355.41 631.80,355.18 ZM 537.88 1030.25 C537.82,1029.84 537.87,1029.05 538.00,1028.50 C538.26,1027.42 538.56,1020.76 539.55,994.50 C539.90,985.15 540.54,975.03 540.97,972.00 C541.40,968.97 541.84,962.70 541.93,958.06 C542.03,953.42 542.37,949.21 542.69,948.70 C543.00,948.19 543.38,944.40 543.53,940.27 C543.68,936.14 544.13,928.20 544.52,922.63 L 545.25 912.50 L 560.12 897.65 C568.31,889.48 575.00,882.45 575.00,882.02 C575.00,881.58 576.01,880.54 577.25,879.69 C578.49,878.84 584.58,873.17 590.79,867.07 C597.00,860.98 602.48,856.00 602.97,856.00 C604.29,856.00 605.11,852.70 605.53,845.71 C606.36,831.80 607.10,823.09 608.09,815.50 C608.66,811.10 609.78,802.55 610.58,796.50 C611.37,790.45 612.24,782.35 612.50,778.50 C613.02,770.91 614.62,762.11 615.78,760.48 C616.82,759.00 622.36,755.52 623.25,755.78 C623.66,755.90 624.00,755.43 624.00,754.74 C624.00,754.04 625.79,752.37 627.98,751.02 C630.16,749.66 632.87,747.31 634.01,745.78 C635.14,744.25 636.72,743.00 637.53,743.00 C638.33,743.00 640.68,741.38 642.75,739.39 C644.81,737.40 647.93,735.16 649.68,734.40 C654.32,732.40 653.83,734.28 655.47,712.50 C656.30,701.43 656.96,694.99 657.97,688.00 C658.49,684.42 659.17,678.35 659.47,674.50 C659.77,670.65 660.31,663.77 660.66,659.22 C661.28,651.18 661.41,650.85 664.90,648.15 C666.88,646.63 671.07,644.10 674.22,642.54 C677.37,640.98 680.74,638.96 681.72,638.06 C682.70,637.15 685.39,635.31 687.69,633.96 C690.00,632.60 694.16,629.96 696.94,628.08 C701.63,624.91 702.00,624.37 702.00,620.58 C702.03,595.01 703.10,564.56 703.99,564.00 C704.58,563.64 704.78,562.59 704.43,561.67 C704.07,560.75 704.28,559.94 704.89,559.88 C706.45,559.70 707.13,559.49 710.29,558.17 C711.83,557.54 714.31,556.73 715.79,556.37 C717.28,556.01 718.95,555.40 719.50,555.01 C720.05,554.61 722.75,553.74 725.50,553.08 C732.03,551.50 734.99,549.51 734.92,546.74 C734.78,541.42 736.10,509.39 736.50,508.25 C736.74,507.56 736.44,507.00 735.84,507.00 C735.09,507.00 734.98,505.35 735.49,501.75 C735.90,498.86 736.26,495.90 736.28,495.16 C736.34,493.70 739.31,492.32 744.30,491.45 C752.37,490.04 756.00,488.71 756.07,487.13 C756.31,481.65 758.96,460.17 759.79,457.00 C760.15,455.62 760.46,452.48 760.47,450.00 C760.49,446.68 760.89,445.50 762.00,445.50 C762.83,445.50 763.44,445.95 763.36,446.50 C763.28,447.05 762.94,452.23 762.60,458.00 C760.82,488.48 760.22,491.48 755.63,492.88 C752.50,493.84 741.14,495.49 739.78,495.18 C738.83,494.97 736.78,498.83 737.35,499.77 C738.12,501.05 739.18,519.20 738.99,528.00 C738.88,532.67 738.78,539.82 738.75,543.87 L 738.70 551.25 L 733.60 553.57 C730.80,554.85 727.38,556.10 726.00,556.34 C724.62,556.59 721.70,557.48 719.50,558.31 C717.30,559.14 713.36,560.41 710.75,561.13 L 706.00 562.44 L 705.75 588.97 C705.62,603.56 705.54,618.31 705.58,621.75 C705.63,625.93 705.27,628.00 704.48,628.00 C703.83,628.00 701.50,629.30 699.30,630.89 C697.11,632.49 693.78,634.57 691.90,635.52 C690.03,636.47 686.02,638.88 682.99,640.87 C679.95,642.87 675.24,645.62 672.52,647.00 C664.25,651.17 664.26,651.14 663.58,664.00 C663.25,670.33 662.76,677.75 662.50,680.50 C658.89,718.37 657.73,728.98 656.92,731.58 C656.03,734.42 651.26,739.00 649.20,739.00 C648.71,739.00 647.45,739.95 646.41,741.10 C645.36,742.26 643.15,743.90 641.50,744.74 C639.85,745.58 636.92,747.60 635.00,749.23 C628.32,754.88 619.75,761.00 618.53,761.00 C617.72,761.00 617.07,763.52 616.64,768.25 C616.29,772.24 615.76,777.08 615.48,779.00 C614.99,782.35 614.39,788.70 613.56,799.50 C612.93,807.63 610.94,825.38 610.48,827.00 C610.25,827.83 609.81,832.10 609.52,836.50 C609.22,840.90 608.73,846.00 608.43,847.83 C608.11,849.76 608.39,851.76 609.10,852.62 C610.10,853.83 609.29,854.97 604.41,859.22 C601.16,862.05 594.60,868.22 589.83,872.93 C580.33,882.31 556.42,905.07 551.26,909.63 C548.24,912.30 547.95,913.14 547.07,921.50 C546.55,926.45 546.31,931.94 546.54,933.71 C546.76,935.47 546.54,937.16 546.05,937.47 C545.53,937.79 545.51,939.29 546.01,941.02 C546.49,942.72 546.47,946.73 545.96,950.26 C544.68,959.19 543.96,968.81 543.61,982.00 C542.89,1008.68 541.70,1028.58 540.76,1029.75 C539.65,1031.14 538.06,1031.41 537.88,1030.25 ZM 199.00 1022.51 C199.00,1021.94 201.68,1018.53 204.50,1015.51 C205.60,1014.34 207.84,1011.38 209.48,1008.94 C213.13,1003.51 217.00,999.65 217.86,1000.58 C218.21,1000.96 217.94,1001.47 217.25,1001.72 C216.56,1001.97 216.00,1002.73 216.00,1003.41 C216.00,1004.54 209.35,1013.70 205.92,1017.29 C205.14,1018.11 203.72,1019.73 202.76,1020.89 C201.19,1022.80 199.00,1023.74 199.00,1022.51 ZM 484.67 865.33 C483.26,863.93 484.11,863.36 487.00,863.79 C488.65,864.03 490.00,864.63 490.00,865.11 C490.00,866.14 485.65,866.32 484.67,865.33 ZM 127.00 845.92 C127.00,844.52 132.52,839.00 133.92,839.00 C135.55,839.00 135.27,839.62 131.90,843.47 C128.77,847.02 127.00,847.91 127.00,845.92 ZM 129.71 804.33 C129.41,803.86 130.76,801.75 132.69,799.64 C135.42,796.67 136.46,796.08 137.35,797.03 C138.22,797.95 138.15,798.38 137.06,798.77 C136.27,799.06 134.41,800.62 132.93,802.24 C131.45,803.86 130.00,804.80 129.71,804.33 ZM 140.02 793.75 C140.03,792.16 149.61,781.89 153.25,779.54 C158.22,776.34 156.15,779.79 148.50,787.47 C144.37,791.61 140.77,795.00 140.50,795.00 C140.22,795.00 140.01,794.44 140.02,793.75 ZM 132.63 628.30 C130.86,626.53 133.59,626.23 152.25,626.16 C173.27,626.07 180.00,626.54 180.00,628.09 C180.00,629.10 133.64,629.31 132.63,628.30 ZM 647.00 518.20 C647.00,517.28 647.68,516.95 648.94,517.27 C650.00,517.55 651.09,517.22 651.35,516.54 C651.83,515.29 651.48,485.69 650.47,441.50 C650.17,428.30 650.00,413.67 650.10,409.00 C650.29,399.39 650.27,397.16 649.97,391.50 C649.85,389.30 649.80,385.25 649.86,382.50 C650.17,368.47 649.80,359.46 648.86,358.34 C648.29,357.65 648.16,356.55 648.56,355.90 C649.34,354.65 649.21,332.76 648.34,317.50 C648.06,312.55 647.87,307.83 647.92,307.00 C648.10,304.02 648.15,295.45 648.00,293.00 C647.91,291.62 647.81,275.88 647.78,258.00 C647.74,240.12 647.71,224.60 647.70,223.50 C647.69,222.40 647.72,219.02 647.76,216.00 C647.88,207.87 647.18,153.98 646.82,143.16 C646.65,138.02 646.23,133.64 645.88,133.42 C645.09,132.94 648.21,126.08 649.24,126.03 C649.65,126.01 649.96,128.14 649.92,130.75 C649.89,133.36 650.14,152.82 650.49,174.00 C650.84,195.18 651.37,228.48 651.68,248.00 C651.98,267.52 652.37,283.65 652.54,283.84 C652.71,284.03 653.90,282.97 655.18,281.48 C661.58,274.02 686.28,250.00 687.55,250.00 C688.35,250.00 689.00,249.55 689.00,248.99 C689.00,247.79 692.84,243.27 699.00,237.23 C701.47,234.80 710.27,226.12 718.54,217.93 L 733.57 203.04 L 733.80 179.77 C734.42,115.28 734.90,89.03 735.53,84.38 C736.03,80.69 735.87,79.04 734.96,78.47 C734.20,78.01 733.94,78.10 734.31,78.69 C734.65,79.25 726.00,84.22 714.71,89.95 C703.60,95.59 687.75,103.70 679.50,107.97 C671.25,112.25 641.10,127.59 612.50,142.08 C583.90,156.57 548.94,174.29 534.82,181.46 C520.69,188.63 495.49,201.42 478.82,209.88 C462.14,218.34 447.61,225.88 446.53,226.63 C445.44,227.38 443.57,228.00 442.36,228.00 C441.15,228.00 440.02,228.45 439.83,229.01 C439.65,229.56 430.28,234.69 419.01,240.40 L 398.53 250.77 L 398.83 254.29 C399.00,256.22 398.66,258.10 398.07,258.46 C397.39,258.88 397.00,257.83 397.00,255.56 C397.00,252.04 395.52,250.93 393.45,252.90 C392.27,254.02 366.35,267.11 365.28,267.13 C364.85,267.14 363.83,267.72 363.00,268.43 C361.36,269.85 339.08,281.23 309.50,295.75 C299.05,300.89 289.83,305.50 289.00,306.01 C285.40,308.24 226.43,338.00 199.00,351.43 C191.57,355.07 182.35,359.83 178.50,362.02 C174.65,364.20 170.38,366.55 169.00,367.23 C167.62,367.92 165.83,369.12 165.02,369.90 C164.21,370.68 161.73,372.17 159.52,373.21 C157.31,374.25 153.25,376.40 150.50,377.98 L 145.50 380.86 L 144.86 376.68 C144.23,372.50 144.59,361.37 145.57,355.25 C145.91,353.14 146.66,352.00 147.70,352.00 C149.09,352.00 155.68,348.86 172.50,340.16 C176.19,338.25 181.05,336.07 190.00,332.32 C196.28,329.69 199.26,328.29 218.00,319.19 C228.18,314.25 241.45,307.87 247.50,305.01 C253.55,302.15 259.69,299.18 261.14,298.41 C264.47,296.65 265.71,296.04 299.00,279.69 C314.12,272.27 331.90,263.62 338.50,260.48 C345.10,257.33 363.10,248.57 378.50,241.00 C405.68,227.64 410.68,225.39 412.25,225.80 C412.66,225.91 413.00,225.59 413.00,225.09 C413.00,224.31 427.47,216.61 429.09,216.53 C429.42,216.51 435.72,213.50 443.09,209.83 C450.47,206.16 464.15,199.46 473.50,194.95 C482.85,190.43 501.52,181.34 515.00,174.75 C542.21,161.43 550.30,157.64 554.00,156.50 C555.38,156.08 556.72,155.42 557.00,155.04 C557.28,154.67 561.55,152.45 566.50,150.11 C571.45,147.77 576.17,145.44 577.00,144.93 C577.83,144.41 580.97,142.80 584.00,141.35 C594.69,136.22 609.96,128.66 615.14,125.92 C617.14,124.86 619.50,124.00 620.39,124.00 C621.27,124.00 622.00,123.64 622.00,123.19 C622.00,122.75 623.91,121.55 626.25,120.52 C630.83,118.51 652.46,108.21 671.00,99.21 C677.33,96.14 682.84,93.71 683.25,93.81 C683.66,93.92 684.00,93.55 684.00,93.00 C684.00,92.45 684.34,92.09 684.75,92.20 C685.16,92.31 691.73,89.31 699.35,85.54 C706.96,81.76 713.83,78.67 714.60,78.67 C715.37,78.67 716.00,78.34 716.00,77.94 C716.00,77.54 717.05,76.95 718.32,76.63 C719.60,76.31 722.24,74.97 724.19,73.65 C726.13,72.33 729.32,70.72 731.26,70.08 C733.20,69.44 735.81,68.03 737.05,66.96 C738.29,65.88 739.89,65.00 740.60,65.00 C741.32,65.00 742.26,64.36 742.70,63.58 C743.53,62.10 746.23,61.58 751.69,61.84 C754.20,61.97 754.81,62.39 754.54,63.81 C754.25,65.28 754.71,65.55 756.90,65.23 C758.41,65.01 760.11,65.43 760.74,66.18 C762.39,68.17 767.14,82.85 766.95,85.35 C766.62,89.55 767.17,99.48 767.65,98.00 C769.51,92.29 771.50,89.00 773.09,89.00 C774.08,89.00 775.13,89.41 775.44,89.91 C775.75,90.40 776.88,90.58 777.96,90.30 C779.27,89.96 780.74,90.72 782.43,92.64 C783.81,94.22 784.95,95.89 784.97,96.37 C784.99,96.84 786.46,99.32 788.25,101.87 C790.04,104.41 792.58,108.64 793.89,111.26 C795.21,113.87 797.46,117.17 798.89,118.58 C800.33,120.00 802.62,123.31 804.00,125.95 C805.38,128.58 808.30,133.45 810.50,136.77 C812.70,140.08 815.75,144.75 817.27,147.15 C822.74,155.71 827.57,162.86 832.25,169.26 C834.86,172.83 837.00,176.23 837.00,176.81 C837.00,177.38 837.56,178.46 838.25,179.21 C840.71,181.86 843.73,186.58 844.48,188.94 C844.90,190.26 845.65,191.83 846.15,192.42 C849.19,196.03 855.31,204.82 856.00,206.59 C856.76,208.51 858.55,211.42 871.40,231.67 C876.33,239.43 877.83,244.43 878.47,255.11 C878.69,258.89 879.08,262.33 879.34,262.74 C880.92,265.29 882.04,344.51 880.54,346.94 C879.61,348.44 874.00,348.28 873.98,346.75 C873.97,345.77 873.80,345.76 873.19,346.73 C872.76,347.40 872.28,353.50 872.13,360.27 L 871.85 372.58 L 874.68 374.04 C876.23,374.84 877.83,375.95 878.23,376.50 C878.64,377.05 878.98,377.16 878.98,376.74 C878.99,376.33 880.87,377.34 883.15,378.99 C885.43,380.65 887.89,382.00 888.61,382.00 C889.65,382.00 889.83,385.40 889.50,398.75 C889.28,407.96 889.07,416.91 889.04,418.64 C889.00,421.68 886.40,424.07 885.08,422.28 C884.76,421.85 883.38,421.41 882.00,421.31 C880.62,421.21 875.22,420.16 870.00,418.98 C838.71,411.92 822.88,408.64 818.25,408.25 C815.36,408.01 813.19,407.50 813.42,407.12 C813.85,406.44 812.80,406.23 807.04,405.86 C805.42,405.75 803.85,405.04 803.55,404.28 C803.18,403.31 802.52,403.17 801.37,403.82 C800.29,404.42 798.81,404.30 797.11,403.48 C795.67,402.79 793.15,401.78 791.50,401.23 C789.85,400.69 787.76,399.94 786.86,399.56 C785.39,398.94 785.16,400.78 784.59,417.69 C784.24,428.03 783.62,437.62 783.21,439.00 C782.47,441.42 782.18,441.50 773.48,441.50 C767.39,441.50 764.24,441.90 763.70,442.75 C762.48,444.66 761.00,444.24 761.00,441.97 C761.00,439.34 761.95,439.04 771.23,438.68 C775.48,438.52 779.21,438.12 779.53,437.81 C780.28,437.05 780.35,413.89 779.64,402.69 C779.09,394.10 779.12,393.90 781.16,394.55 C782.31,394.92 783.98,395.36 784.87,395.53 C785.77,395.70 786.50,395.92 786.50,396.01 C786.50,396.09 787.84,396.38 789.48,396.65 C791.11,396.91 792.96,397.55 793.58,398.06 C794.20,398.58 796.23,399.14 798.10,399.32 C799.97,399.49 801.43,400.06 801.33,400.57 C801.24,401.08 803.39,401.57 806.11,401.65 C808.83,401.74 811.65,402.29 812.37,402.89 C813.09,403.49 813.96,403.71 814.30,403.37 C814.64,403.03 815.72,403.11 816.71,403.56 C817.69,404.00 819.17,404.46 820.00,404.59 C823.45,405.14 841.42,409.14 842.00,409.50 C842.34,409.71 847.03,410.59 852.41,411.46 C857.79,412.33 862.94,413.42 863.85,413.90 C864.76,414.37 867.53,415.02 870.00,415.34 C872.47,415.65 876.05,416.37 877.93,416.94 C879.82,417.50 881.58,417.75 881.84,417.49 C882.10,417.23 882.92,417.52 883.66,418.13 C884.75,419.04 885.03,418.24 885.15,413.87 C885.34,407.26 885.55,404.65 886.72,394.50 C887.62,386.68 887.59,386.46 885.17,384.56 C883.81,383.49 879.95,381.33 876.60,379.75 C870.87,377.05 865.79,374.02 853.99,366.25 C851.27,364.46 848.66,363.00 848.18,363.00 C847.70,363.00 844.43,361.13 840.91,358.85 C837.38,356.57 833.05,354.31 831.28,353.82 C829.51,353.33 826.81,351.90 825.28,350.64 C823.75,349.39 821.02,347.77 819.21,347.04 C817.40,346.32 814.14,344.44 811.97,342.86 C809.80,341.29 807.62,340.00 807.13,340.00 C806.64,340.00 805.69,339.33 805.01,338.51 C804.33,337.69 803.43,337.24 803.00,337.50 C802.58,337.76 801.12,337.09 799.75,336.02 C798.38,334.94 794.29,332.98 790.66,331.67 C787.03,330.35 782.81,328.42 781.28,327.39 C777.94,325.12 771.63,322.03 771.21,322.46 C770.94,322.73 769.75,356.67 769.85,361.32 C769.89,363.44 768.06,363.19 756.98,359.56 L 750.14 357.32 L 749.52 359.77 C748.97,361.97 747.89,385.31 747.64,400.37 L 747.54 406.24 L 739.02 405.47 C734.33,405.05 729.38,404.65 728.00,404.58 C726.62,404.50 724.94,404.09 724.25,403.66 C723.39,403.12 723.00,403.60 723.00,405.19 C722.99,422.43 722.12,453.99 721.64,454.77 C721.25,455.41 715.11,455.75 705.55,455.69 C697.05,455.63 689.77,455.90 689.38,456.29 C688.99,456.68 688.55,459.13 688.41,461.75 C687.38,480.79 686.98,487.14 686.03,499.50 C685.44,507.20 684.71,514.29 684.41,515.25 C684.01,516.53 682.75,517.02 679.68,517.08 C677.38,517.12 674.83,517.30 674.00,517.49 C667.95,518.84 660.98,519.54 659.40,518.96 C658.35,518.58 655.14,518.58 652.25,518.96 C648.03,519.51 647.00,519.36 647.00,518.20 ZM 669.00 515.62 C670.92,515.27 674.23,514.79 676.35,514.55 C678.47,514.32 680.44,513.90 680.71,513.62 C680.99,513.34 681.60,508.25 682.06,502.31 C682.53,496.36 683.17,488.12 683.48,484.00 C683.80,479.88 684.30,475.15 684.58,473.50 C684.87,471.85 685.32,467.46 685.59,463.75 L 686.09 457.00 L 682.04 456.88 C676.04,456.69 675.70,456.61 675.25,455.25 C674.95,454.36 676.36,453.98 680.17,453.94 C683.10,453.91 688.88,453.66 693.00,453.39 C697.12,453.11 704.40,452.80 709.17,452.69 C713.93,452.59 718.16,452.18 718.55,451.78 C718.95,451.38 719.32,444.30 719.39,436.04 C719.45,427.77 719.78,421.01 720.11,421.01 C720.45,421.00 720.60,419.88 720.45,418.50 C720.30,417.12 720.69,415.99 721.34,415.98 C722.09,415.97 722.02,415.67 721.16,415.12 C720.42,414.65 719.91,412.97 720.02,411.39 C720.12,409.80 720.16,407.23 720.11,405.69 L 720.00 402.87 L 696.25 403.15 C658.84,403.59 660.01,403.45 656.75,407.99 L 654.00 411.82 L 654.00 432.91 C654.00,451.34 654.20,454.00 655.56,454.00 C656.42,454.00 656.84,454.45 656.50,455.00 C656.16,455.55 656.36,456.00 656.94,456.00 C657.52,456.00 658.00,455.60 658.00,455.11 C658.00,453.67 673.26,454.29 673.75,455.75 C673.98,456.44 673.45,457.00 672.58,457.00 C671.71,457.00 670.96,456.44 670.92,455.75 C670.86,454.75 670.74,454.75 670.34,455.75 C669.99,456.60 667.32,457.00 661.95,457.00 L 654.06 457.00 L 654.60 486.24 C654.96,505.62 655.51,515.70 656.23,516.14 C657.42,516.87 663.50,516.63 669.00,515.62 ZM 661.98 394.00 C662.28,393.73 663.70,391.67 665.15,389.44 C666.60,387.20 669.40,383.65 671.39,381.55 C673.38,379.44 675.00,377.30 675.00,376.79 C675.00,376.28 675.56,375.26 676.25,374.54 C678.67,371.99 681.00,368.97 681.00,368.38 C681.00,368.06 682.27,366.15 683.83,364.14 C688.54,358.09 688.54,358.00 684.07,358.00 C680.22,358.00 679.73,358.37 673.89,365.75 C670.51,370.01 667.35,373.65 666.87,373.83 C666.39,374.02 666.00,374.60 666.00,375.13 C666.00,375.67 663.22,379.68 659.83,384.06 C653.39,392.37 651.83,396.95 654.05,401.10 C655.11,403.07 655.32,402.96 658.30,398.84 C660.02,396.45 661.68,394.27 661.98,394.00 ZM 744.00 394.22 C744.12,389.42 744.33,384.38 744.46,383.00 C744.60,381.62 745.01,376.45 745.39,371.50 C745.76,366.55 746.24,361.38 746.46,360.00 L 746.85 357.50 L 738.30 357.86 C731.88,358.13 729.54,357.88 728.89,356.86 C728.27,355.87 728.03,355.84 728.02,356.74 C728.00,357.68 723.97,357.97 711.41,357.94 C700.70,357.92 694.34,358.30 693.48,359.01 C692.75,359.62 687.29,366.73 681.35,374.81 C675.42,382.89 669.98,390.09 669.28,390.82 C668.58,391.55 668.00,392.48 668.00,392.88 C668.00,393.29 667.21,394.50 666.25,395.57 C661.28,401.12 659.33,400.72 691.74,400.71 C717.21,400.71 729.54,401.21 730.61,402.28 C730.75,402.42 733.78,402.62 737.33,402.74 L 743.79 402.94 L 744.00 394.22 ZM 655.00 384.00 C655.00,383.45 655.79,382.21 656.75,381.24 C657.71,380.27 660.63,376.49 663.24,372.83 C665.84,369.17 668.34,366.02 668.77,365.84 C669.58,365.49 674.00,359.53 674.00,358.78 C674.00,358.36 653.78,358.88 653.35,359.31 C653.13,359.53 652.81,377.86 652.94,382.75 C653.00,384.89 655.00,386.10 655.00,384.00 ZM 151.02 374.25 C153.66,371.99 188.86,354.00 190.64,354.00 C191.39,354.00 192.00,353.55 192.00,353.00 C192.00,352.45 192.84,352.00 193.88,352.00 C194.91,352.00 196.31,351.33 196.98,350.52 C197.66,349.71 199.40,348.43 200.86,347.69 C202.31,346.95 208.00,343.93 213.50,340.99 C219.00,338.05 234.47,330.11 247.88,323.34 C261.29,316.56 272.77,310.65 273.38,310.18 C274.00,309.72 276.08,308.71 278.00,307.96 C279.92,307.20 284.06,305.14 287.20,303.37 C290.33,301.61 293.93,299.84 295.20,299.45 C296.46,299.05 297.73,298.45 298.00,298.12 C298.64,297.33 300.99,296.06 314.50,289.23 C317.80,287.57 321.85,285.50 323.50,284.65 C325.15,283.80 327.17,282.86 328.00,282.56 C328.83,282.26 330.17,281.58 331.00,281.05 C332.82,279.88 357.74,266.90 358.39,266.78 C358.64,266.74 363.50,264.32 369.17,261.40 C374.85,258.49 383.10,254.29 387.50,252.07 C391.90,249.86 396.17,247.58 397.00,247.01 C397.83,246.44 401.42,244.60 405.00,242.93 C408.58,241.26 418.25,236.40 426.50,232.14 C434.75,227.88 445.77,222.25 451.00,219.63 C456.23,217.02 461.17,214.48 462.00,213.99 C466.87,211.10 489.71,199.98 490.75,199.99 C491.44,200.00 492.00,199.64 492.00,199.21 C492.00,198.77 493.46,197.72 495.25,196.86 C500.00,194.59 557.73,165.27 585.00,151.27 C627.74,129.33 638.00,124.18 638.00,124.63 C638.00,124.88 638.56,124.59 639.25,124.00 C639.94,123.41 645.45,120.41 651.50,117.34 C657.55,114.27 673.41,106.21 686.75,99.43 C700.09,92.65 711.00,87.38 711.00,87.71 C711.00,88.04 711.79,87.62 712.75,86.77 C713.71,85.92 716.30,84.36 718.50,83.30 C720.70,82.25 723.40,80.86 724.50,80.24 C725.60,79.61 728.53,78.18 731.00,77.07 C733.47,75.96 736.30,74.48 737.28,73.77 C739.70,72.04 741.58,74.69 739.55,76.98 C737.44,79.37 736.71,198.76 738.63,229.00 C739.41,241.38 740.25,252.05 740.48,252.72 C740.72,253.39 740.43,254.23 739.85,254.59 C739.14,255.03 739.12,255.46 739.80,255.88 C741.09,256.68 741.65,265.14 740.53,266.95 C739.97,267.86 740.07,268.08 740.85,267.60 C741.69,267.07 742.00,269.70 742.00,277.38 C742.00,283.66 742.42,288.14 743.05,288.53 C743.77,288.98 743.69,289.87 742.80,291.34 C741.87,292.88 741.58,297.02 741.78,305.75 L 742.06 318.00 L 746.50 318.00 C749.62,318.00 750.80,317.63 750.49,316.75 C750.24,316.06 749.82,313.48 749.55,311.00 C749.28,308.52 748.84,305.15 748.57,303.50 C748.30,301.85 747.83,288.58 747.53,274.00 C747.24,259.42 746.74,239.40 746.43,229.50 C746.11,219.60 745.68,197.55 745.45,180.50 C745.23,163.45 744.77,138.25 744.43,124.50 C744.09,110.75 744.22,97.03 744.71,94.00 C745.22,90.82 745.23,87.02 744.72,85.00 C743.35,79.53 743.63,72.08 745.27,70.19 C746.08,69.26 746.54,67.94 746.29,67.25 C745.66,65.51 743.33,65.69 742.63,67.53 C742.13,68.83 711.76,84.21 679.50,99.50 C674.55,101.84 658.88,109.44 644.68,116.38 C630.48,123.32 618.69,129.00 618.47,129.00 C618.11,129.00 606.63,134.55 560.00,157.26 C517.96,177.73 485.77,193.11 484.50,193.33 C483.95,193.42 483.27,193.79 483.00,194.15 C482.36,194.99 443.47,213.81 420.00,224.64 C414.77,227.05 409.83,229.47 409.00,230.02 C408.17,230.58 405.70,231.87 403.50,232.90 C401.30,233.93 390.95,238.93 380.50,243.99 C370.05,249.06 355.42,256.13 348.00,259.70 C340.58,263.28 330.00,268.36 324.50,271.01 C319.00,273.66 306.40,279.75 296.50,284.55 C286.60,289.35 277.94,293.29 277.25,293.30 C276.56,293.32 276.00,293.64 276.00,294.01 C276.00,294.98 268.92,298.05 266.24,298.26 C265.01,298.35 264.00,298.78 264.00,299.21 C264.00,300.19 225.13,319.33 223.13,319.33 C222.33,319.33 220.83,320.17 219.80,321.20 C218.78,322.22 216.60,323.33 214.97,323.66 C213.34,323.98 212.00,324.64 212.00,325.12 C212.00,325.61 211.59,326.00 211.09,326.00 C210.58,326.00 205.43,328.24 199.62,330.99 C193.82,333.73 188.53,336.09 187.86,336.24 C187.19,336.38 185.41,337.62 183.90,339.00 C182.39,340.38 179.08,342.34 176.54,343.37 C173.99,344.39 168.26,347.21 163.79,349.62 C159.32,352.02 155.47,353.80 155.22,353.56 C154.98,353.32 154.27,353.56 153.64,354.09 C153.01,354.63 151.65,355.66 150.61,356.38 C149.00,357.48 148.69,359.07 148.59,366.84 C148.52,371.88 148.57,376.00 148.72,376.00 C148.86,376.00 149.90,375.21 151.02,374.25 ZM 868.44 357.63 L 868.26 344.26 L 864.13 340.13 C861.86,337.86 859.57,336.00 859.03,336.00 C858.50,336.00 856.59,334.76 854.78,333.25 C850.21,329.42 844.91,325.76 844.52,326.16 C844.34,326.35 844.03,333.10 843.84,341.17 C843.54,354.27 843.69,355.95 845.25,356.92 C846.21,357.52 847.11,357.96 847.25,357.91 C847.39,357.85 851.00,359.87 855.28,362.40 C859.56,364.93 863.42,367.00 863.87,367.00 C864.32,367.00 865.50,367.90 866.50,369.00 C867.50,370.10 868.38,371.00 868.47,371.00 C868.55,371.00 868.54,364.98 868.44,357.63 ZM 766.74 354.64 C766.64,352.36 766.91,343.75 767.34,335.50 L 768.13 320.50 L 755.81 320.84 C749.04,321.02 743.35,321.32 743.17,321.50 C741.89,322.77 743.88,354.26 745.29,355.16 C745.86,355.52 747.26,355.47 748.41,355.04 C749.62,354.60 751.76,354.79 753.50,355.52 C757.75,357.29 761.99,358.48 764.65,358.64 C766.71,358.77 766.91,358.38 766.74,354.64 ZM 668.43 355.19 C677.51,355.17 677.46,355.20 688.00,341.25 C691.02,337.26 693.82,334.00 694.24,334.00 C694.66,334.00 695.00,333.39 695.00,332.65 C695.00,330.89 698.45,327.79 699.38,328.72 C699.78,329.11 699.82,328.69 699.47,327.78 C699.06,326.71 699.57,325.66 700.92,324.82 C706.02,321.63 703.45,321.17 681.58,321.34 C661.12,321.49 656.77,321.01 660.03,318.97 C661.98,317.74 686.29,318.22 687.23,319.50 C687.70,320.13 687.97,320.08 687.98,319.34 C687.99,318.57 690.85,318.16 696.75,318.11 C706.26,318.03 706.70,317.79 712.50,309.60 C717.52,302.50 730.26,286.13 733.46,282.66 C735.41,280.54 737.00,278.44 737.00,277.99 C737.00,277.54 737.40,277.02 737.88,276.83 C738.40,276.64 738.40,272.28 737.90,266.50 C737.42,261.00 736.97,254.48 736.90,252.00 C736.83,249.52 736.37,245.56 735.87,243.20 C735.37,240.83 734.92,235.12 734.85,230.52 L 734.74 222.14 L 729.62 227.47 C726.80,230.40 714.60,242.98 702.50,255.43 C650.11,309.34 652.29,306.97 652.49,309.82 C652.60,311.30 652.76,313.73 652.84,315.23 C652.96,317.22 653.66,318.13 655.43,318.57 C657.06,318.98 657.68,319.68 657.30,320.67 C656.96,321.54 655.95,321.96 654.86,321.67 C653.15,321.23 652.99,321.93 652.93,330.59 C652.75,353.55 652.85,356.21 653.80,355.62 C654.24,355.35 655.22,355.52 655.99,356.00 C656.76,356.47 658.09,356.49 658.95,356.04 C659.80,355.58 664.07,355.20 668.43,355.19 ZM 688.53 355.08 C689.94,355.02 693.46,351.07 699.97,342.25 C705.14,335.24 710.64,328.02 712.18,326.22 C713.73,324.41 715.00,322.60 715.00,322.20 C715.00,320.93 708.13,321.73 706.78,323.15 C704.95,325.07 700.85,330.14 698.50,333.40 C696.04,336.81 687.59,347.71 685.08,350.70 C684.07,351.91 683.48,353.15 683.79,353.45 C684.09,353.75 683.78,354.00 683.11,354.00 C682.43,354.00 682.14,354.41 682.44,354.91 C682.75,355.41 683.79,355.67 684.75,355.49 C685.71,355.30 687.42,355.12 688.53,355.08 ZM 732.88 355.04 L 741.25 355.00 L 740.57 351.75 C740.20,349.96 739.67,342.42 739.38,335.00 C739.10,327.58 738.44,321.35 737.93,321.16 C737.41,320.98 737.28,320.31 737.64,319.66 C738.06,318.92 737.81,318.95 736.95,319.75 C736.13,320.51 732.76,321.00 728.33,321.00 L 721.05 321.00 L 715.28 328.86 C707.06,340.04 706.04,341.42 700.86,348.32 L 696.22 354.50 L 700.36 355.00 C702.64,355.27 709.00,355.40 714.50,355.29 C720.00,355.17 728.27,355.06 732.88,355.04 ZM 840.59 338.36 L 840.50 322.72 L 837.38 320.61 C828.85,314.84 822.90,309.71 823.35,308.53 C823.69,307.65 823.23,307.39 821.94,307.73 C820.76,308.04 819.79,307.61 819.41,306.61 C819.06,305.73 818.16,305.00 817.39,305.00 C816.63,305.00 816.00,304.58 816.00,304.06 C816.00,301.99 817.92,302.16 821.13,304.49 C822.98,305.84 826.30,308.19 828.50,309.72 C830.70,311.25 833.85,313.73 835.50,315.24 C837.15,316.75 838.84,317.99 839.25,318.00 C840.16,318.00 840.15,318.24 840.04,294.00 L 839.96 274.50 L 835.98 270.71 C833.79,268.63 832.00,266.75 832.00,266.54 C832.00,266.32 827.05,261.05 821.00,254.82 C814.95,248.59 805.74,239.12 800.53,233.76 L 791.07 224.03 L 791.62 253.76 C792.24,287.28 791.94,286.04 800.47,289.95 C802.69,290.97 806.41,293.59 808.75,295.78 C811.09,297.98 813.00,299.54 813.00,299.26 C813.00,298.98 813.67,299.32 814.50,300.00 C815.33,300.68 816.00,301.64 816.00,302.12 C816.00,303.90 813.56,302.90 808.59,299.10 C805.79,296.95 801.62,294.22 799.32,293.03 C797.02,291.84 794.60,290.22 793.95,289.43 C793.29,288.65 792.47,288.00 792.13,288.00 C791.78,288.00 791.40,296.34 791.29,306.53 C791.17,316.73 790.80,325.51 790.47,326.05 C788.67,328.96 788.07,323.96 788.05,305.76 C788.02,290.62 787.70,285.41 786.76,284.88 C786.07,284.49 784.15,282.98 782.50,281.52 C780.85,280.07 777.82,278.18 775.78,277.34 C772.02,275.79 768.94,270.91 765.56,261.15 L 764.36 257.67 L 757.75 264.14 L 751.15 270.62 L 751.55 277.56 C751.77,281.38 752.18,289.00 752.47,294.50 C752.76,300.00 753.23,306.92 753.52,309.87 C753.84,313.18 753.60,315.78 752.90,316.62 C752.27,317.38 752.15,318.03 752.63,318.07 C753.11,318.11 757.55,318.31 762.50,318.51 C771.86,318.90 777.70,320.45 781.24,323.48 C782.38,324.45 786.77,326.46 790.99,327.94 C795.21,329.41 802.61,333.00 807.45,335.91 C812.28,338.82 817.71,341.82 819.52,342.57 C821.32,343.33 823.41,344.52 824.15,345.22 C824.89,345.92 828.88,348.16 833.00,350.19 C837.13,352.22 840.54,353.91 840.59,353.94 C840.64,353.97 840.64,346.96 840.59,338.36 ZM 877.42 327.44 C877.33,311.96 877.32,311.86 874.67,309.21 L 872.00 306.55 L 872.00 323.19 C872.00,332.35 872.27,340.55 872.61,341.42 C872.94,342.29 874.18,343.00 875.36,343.00 C877.46,343.00 877.50,342.70 877.42,327.44 ZM 868.30 331.25 C868.19,327.54 868.07,320.00 868.04,314.50 L 867.97 304.50 L 862.23 298.43 C859.08,295.10 853.69,289.30 850.25,285.56 L 844.00 278.75 L 844.00 300.28 L 844.00 321.81 L 848.50 324.45 C850.97,325.90 853.00,327.52 853.00,328.04 C853.00,328.57 853.46,329.00 854.02,329.00 C855.50,329.00 866.00,336.13 866.00,337.14 C866.00,337.61 866.56,338.00 867.25,338.00 C868.15,338.00 868.44,336.09 868.30,331.25 ZM 735.25 318.06 L 738.00 318.00 L 738.00 307.91 L 738.00 297.82 L 731.40 306.66 C722.16,319.05 722.32,318.54 727.85,318.31 C730.41,318.21 733.74,318.10 735.25,318.06 ZM 723.00 311.78 C725.47,308.39 729.27,303.12 731.43,300.06 C733.60,297.00 735.96,293.91 736.68,293.18 C737.41,292.45 738.00,289.77 738.00,287.23 C738.00,284.63 737.63,283.02 737.16,283.55 C735.54,285.37 721.46,303.54 717.05,309.50 C714.61,312.80 711.91,316.05 711.05,316.72 C709.77,317.73 710.28,317.94 714.00,317.94 C718.36,317.95 718.64,317.76 723.00,311.78 ZM 877.43 304.33 C878.26,302.16 877.22,270.66 875.85,256.50 C875.04,248.14 874.12,244.07 872.00,239.50 L 869.21 233.50 L 869.59 248.00 C870.11,267.99 871.08,297.04 871.31,299.68 C871.49,301.70 874.66,305.80 876.14,305.94 C876.50,305.97 877.07,305.25 877.43,304.33 ZM 670.11 281.87 C687.28,263.94 700.75,250.03 721.55,228.79 C731.97,218.16 734.00,215.59 734.00,213.04 C734.00,211.37 733.63,210.00 733.17,210.00 C732.72,210.00 728.04,214.39 722.77,219.75 C703.19,239.69 667.21,275.05 663.53,277.97 C661.44,279.64 660.04,281.00 660.43,281.00 C660.82,281.00 660.47,281.67 659.64,282.50 C658.82,283.33 657.83,284.00 657.44,284.00 C657.05,284.00 655.69,285.22 654.41,286.71 C652.59,288.82 652.12,290.47 652.26,294.21 C652.36,296.84 652.73,299.00 653.08,299.00 C653.44,299.00 661.10,291.29 670.11,281.87 ZM 866.27 272.75 C866.13,258.86 865.80,246.94 865.54,246.25 C865.28,245.56 865.53,245.00 866.09,245.00 C866.67,245.00 866.77,244.45 866.33,243.75 C865.89,243.06 865.48,239.35 865.42,235.50 C865.31,228.34 863.62,224.30 856.63,214.51 C855.46,212.86 853.51,209.56 852.29,207.17 C849.62,201.91 842.94,193.00 841.67,193.00 C841.14,193.00 841.16,193.53 841.72,194.25 C842.28,194.98 842.77,208.86 842.89,227.50 C843.00,245.10 843.21,260.85 843.36,262.50 C843.51,264.15 843.71,267.58 843.81,270.13 C843.99,274.60 844.41,275.18 855.25,286.38 C861.44,292.76 866.51,297.99 866.52,297.99 C866.53,298.00 866.42,286.64 866.27,272.75 ZM 788.17 261.21 C788.03,250.92 787.73,237.41 787.49,231.18 C787.08,220.30 786.94,219.70 783.87,215.68 C780.33,211.04 772.38,203.00 771.33,203.00 C770.96,203.00 769.93,202.34 769.04,201.53 C767.58,200.22 767.30,200.38 766.29,203.03 C765.68,204.66 765.54,206.00 765.99,206.00 C766.44,206.00 766.86,214.89 766.92,225.75 C766.99,236.61 767.24,248.20 767.48,251.50 C767.98,258.33 771.47,268.09 774.65,271.54 C775.82,272.83 776.51,274.15 776.18,274.49 C775.84,274.83 776.25,274.84 777.10,274.52 C778.00,274.17 780.46,275.34 783.07,277.35 C785.51,279.24 787.70,280.59 787.96,280.35 C788.21,280.11 788.30,271.50 788.17,261.21 ZM 839.55 255.75 C839.14,247.91 838.92,238.12 839.06,234.00 C839.21,229.88 839.25,221.63 839.15,215.67 C839.06,209.72 839.24,204.41 839.57,203.89 C839.89,203.36 840.20,199.40 840.25,195.08 C840.33,188.43 840.01,186.80 838.14,184.37 C836.92,182.79 833.58,177.90 830.72,173.50 C827.85,169.10 824.94,164.91 824.25,164.18 C823.56,163.45 823.00,162.45 823.00,161.94 C823.00,161.44 820.54,157.61 817.54,153.42 C814.53,149.23 811.77,144.83 811.40,143.65 C811.03,142.47 810.42,141.27 810.05,141.00 C808.99,140.22 803.00,131.23 803.00,130.41 C803.00,130.01 801.29,127.39 799.20,124.59 C793.79,117.35 790.77,112.17 791.39,111.18 C791.68,110.72 791.37,110.33 790.71,110.33 C789.40,110.33 789.30,114.24 790.39,122.50 C790.76,125.25 791.13,148.59 791.23,174.36 L 791.40 221.23 L 811.19 241.36 C836.94,267.56 839.38,270.00 839.88,270.00 C840.11,270.00 839.96,263.59 839.55,255.75 ZM 757.13 254.00 C757.82,231.86 757.39,206.10 756.28,203.14 C755.58,201.30 755.30,199.27 755.66,198.64 C756.02,198.01 754.85,198.85 753.06,200.50 L 749.81 203.50 L 750.50 222.00 C750.88,232.18 751.34,245.68 751.52,252.00 C751.71,258.33 751.91,263.73 751.97,264.00 C752.02,264.27 753.18,263.15 754.53,261.50 C756.25,259.40 757.03,257.15 757.13,254.00 ZM 763.33 231.64 C762.98,219.46 762.74,208.04 762.80,206.25 C762.93,202.54 762.92,200.89 762.74,194.25 C762.66,191.64 762.71,187.93 762.84,186.00 C762.97,184.07 763.08,177.10 763.08,170.50 C763.09,163.90 763.39,151.07 763.76,142.00 C764.12,132.93 764.44,121.90 764.46,117.50 C764.50,108.94 763.21,81.49 762.65,79.00 C761.54,74.07 760.66,72.27 758.76,71.08 C756.01,69.37 750.80,67.87 751.50,68.99 C751.79,69.47 751.12,70.14 750.01,70.50 C747.43,71.31 747.43,72.62 750.01,73.29 C752.51,73.95 756.72,82.83 758.56,91.33 C760.54,100.48 759.95,195.79 757.91,197.08 C757.12,197.58 756.99,197.98 757.62,197.98 C758.79,198.00 759.94,201.92 760.56,208.00 C761.29,215.19 760.94,249.51 760.13,249.78 C759.67,249.94 759.49,251.13 759.74,252.42 C760.07,254.14 760.69,254.63 762.08,254.27 C763.89,253.80 763.95,252.80 763.33,231.64 ZM 787.17 211.25 C787.40,206.30 787.83,151.53 787.75,137.50 C787.55,104.15 787.66,105.66 785.25,102.59 C784.01,101.02 782.99,99.23 782.97,98.62 C782.96,98.00 781.65,96.23 780.06,94.67 C776.32,91.00 772.89,91.34 771.63,95.50 C771.14,97.15 770.52,99.18 770.27,100.00 C770.01,100.82 769.69,103.53 769.55,106.00 C769.40,108.47 768.78,115.00 768.16,120.50 C767.54,126.00 766.91,144.81 766.76,162.31 L 766.50 194.11 L 769.00 196.05 C770.38,197.11 772.76,198.55 774.29,199.24 C775.82,199.93 777.33,201.51 777.65,202.75 C777.96,203.99 778.62,205.00 779.11,205.00 C779.60,205.00 780.01,205.79 780.02,206.75 C780.03,207.71 781.15,209.56 782.52,210.85 C783.88,212.15 785.00,213.61 785.00,214.10 C785.00,214.60 785.45,215.00 786.00,215.00 C786.55,215.00 787.08,213.31 787.17,211.25 ZM 754.42 194.88 C754.22,194.55 752.91,194.49 751.52,194.75 C749.15,195.21 748.23,196.90 749.62,198.29 C750.36,199.03 754.96,195.77 754.42,194.88 ZM 754.87 190.46 C755.72,189.61 756.93,155.80 756.98,131.50 C757.02,111.25 756.38,99.15 754.94,92.92 C754.36,90.41 753.97,87.93 754.08,87.42 C754.38,85.98 750.80,78.00 749.85,78.00 C749.38,78.00 749.00,77.35 749.00,76.56 C749.00,75.77 748.61,74.87 748.12,74.58 C747.22,74.02 747.38,119.59 748.42,162.02 C748.74,174.96 749.00,186.97 749.00,188.71 C749.00,191.60 749.23,191.83 751.73,191.37 C753.23,191.10 754.64,190.69 754.87,190.46 ZM 752.49 66.01 C752.84,65.44 752.44,65.28 751.55,65.62 C749.82,66.28 749.50,67.00 750.94,67.00 C751.46,67.00 752.16,66.56 752.49,66.01 Z" fill="rgba(0,0,0,1)" id="path-path-0" stroke="currentColor" pathLength="100"/>
</g>
</svg>