<svg width="186" height="96" viewBox="0 0 186 96" fill="none" xmlns="http://www.w3.org/2000/svg">
<g clip-path="url(#clip0_3100_706)">
<path d="M68.29 0.270276C70.01 0.000276178 72.68 0.280276 74.62 0.260276C81.76 0.180276 88.87 0.320276 95.92 0.260276C119.17 0.0702762 142.52 -0.0397238 165.82 0.0302762C171.88 0.0502762 178.11 -0.129724 184.05 0.260276C184.42 0.280276 184.76 -0.0197238 185.11 0.140276C185.48 0.420276 185.59 2.48028 185.58 3.03028C185.57 3.62028 185.25 6.44028 185.05 6.82028C184.91 7.08028 184.85 7.23028 184.5 7.23028L103.24 7.47028V18.0003C102.89 17.8603 102.65 17.3803 102.52 16.5603C103.21 19.8703 103.05 23.8603 102.82 27.2803C102.82 27.3403 102.68 27.3903 102.52 27.4403L102.83 27.4203C102.76 28.5803 102.82 29.6603 103 30.6703C102.96 51.2403 103.7 71.8303 103 92.2903C102.98 92.7903 103.43 95.0403 102.87 95.0403H90.78C90.63 89.1003 89.98 83.1003 87.85 77.5103C85.88 72.3503 83.57 69.0303 79.53 65.3703C79.03 64.1403 77.21 62.7303 75.94 62.2603C64.83 53.5803 53.75 50.2203 39.71 52.2403C33.85 53.0803 27.79 54.7103 22.64 57.4303C10.72 63.7103 3.09998 75.4703 1.13998 88.8103L0.549975 95.0403C-0.010025 95.0803 0.129975 95.1203 0.0699751 94.6903C-0.0200249 93.9603 0.0999751 93.0703 0.0699751 92.3003C-0.690025 75.1103 4.51997 62.5603 18.21 52.4603C21.74 49.8503 30.36 45.7103 34.64 45.5203C34.79 45.5203 34.76 45.1003 34.96 45.0603C50.28 41.6103 65.82 44.6403 77.87 54.1403C78.1 54.6703 78.24 54.7603 78.83 54.8603C83.11 58.4603 85.79 61.3203 88.91 65.9603C89.16 66.3203 89.75 66.4403 89.83 67.1803C90.29 67.4003 90.23 66.6803 90.31 66.5803C90.83 65.4003 90.83 64.8403 90.31 64.9103C90.31 46.2103 90.07 27.5003 90.31 8.68028C90.42 7.95028 90.3 7.51028 89.94 7.36028C77.97 7.40028 65.99 7.40028 54.02 7.37028C53.32 7.29028 51.37 6.97028 50.99 6.69028C50.12 6.06028 50.08 5.08028 50.47 4.16028C50.23 3.65028 50.08 0.660276 50.22 0.440276C50.3 0.320276 52.84 0.370276 53.1 0.600276C56.66 0.290276 60.3 0.360276 63.81 0.810276C65.21 0.400276 66.7 0.220276 68.29 0.300276V0.270276Z" fill="#2B2121"/>
<path d="M90.3096 8.65051L90.0696 7.45051C78.1396 7.09051 65.9396 7.92051 54.0396 7.46051C53.4696 7.44051 52.9396 7.24051 52.3696 7.19051C51.9796 7.16051 51.5496 7.42051 51.1996 7.38051C50.9196 7.35051 50.0996 6.77051 50.0996 6.61051V0.270508H68.2896C67.2196 0.440508 65.8996 0.340508 65.1096 0.510508C64.9096 0.550508 64.9296 0.950508 64.6596 1.06051C63.1296 1.69051 62.5896 0.640508 61.4196 0.560508C60.8396 0.520508 60.2396 0.800508 59.5596 0.760508C56.9796 0.620508 54.4696 -0.139492 52.1496 1.46051L52.7396 0.500508H50.3496C50.4196 1.31051 50.2496 2.21051 50.3596 3.00051C50.4196 3.41051 50.8896 3.70051 50.8396 4.19051C50.8096 4.49051 50.0896 5.29051 50.3496 5.52051C50.3996 5.57051 50.8196 5.42051 51.0096 5.58051C51.1096 5.66051 51.0496 6.00051 51.1596 6.14051C51.7896 6.93051 53.0296 6.83051 54.0396 7.22051L89.9596 7.20051C90.7996 7.29051 90.3296 7.97051 90.3196 8.64051L90.3096 8.65051Z" fill="#4A4041"/>
<path d="M103.239 17.98C103.729 21.33 103.009 26.93 102.999 30.66C102.029 30.23 102.789 29.15 102.789 28.38C102.789 27.94 102.519 27.54 102.519 27.43V16.54C102.859 16.58 103.189 17.66 103.239 17.98Z" fill="#7D7777"/>
<path d="M79.5392 65.3599C78.4792 64.3999 77.0492 63.1099 75.9492 62.2499C76.4492 61.8499 76.5292 62.1099 76.9092 62.3599C77.4692 62.7299 78.8492 63.8199 79.3092 64.2799C79.6892 64.6499 79.9392 64.8399 79.5392 65.3599Z" fill="#6C6464"/>
<path d="M90.3105 66.5502V64.8802L90.7906 63.4502C91.5906 63.8802 91.1405 65.1802 90.8805 65.8202C90.7505 66.1402 90.4805 66.3102 90.3105 66.5502Z" fill="#9E9999"/>
<path d="M78.8194 54.8304C77.9294 55.1904 77.4394 55.0904 77.8594 54.1104C78.1694 54.3604 78.4394 54.5104 78.8194 54.8304Z" fill="#6C6363"/>
<path d="M100.119 30.1806C100.659 32.1106 100.779 34.1406 100.479 36.2606L100.829 36.1606C100.799 37.0306 100.879 37.9206 100.829 38.7906C100.729 39.7606 100.809 40.1506 101.069 39.9906C101.259 42.2806 101.279 44.2806 101.309 46.5706C101.309 46.9706 101.159 47.6306 101.549 47.8806C101.749 48.6706 101.899 49.5206 101.549 50.2706L100.829 55.0506C100.409 55.1106 100.599 54.5106 100.589 54.2206C100.549 53.2306 100.589 52.2206 100.589 51.2306C101.089 50.7606 100.949 52.1106 100.939 52.0506C100.839 48.9206 100.809 45.7706 100.829 42.6006L100.579 42.3806C100.409 42.1006 100.249 41.8606 100.099 41.6606C100.079 40.3606 100.259 38.6906 100.099 37.4706C100.009 36.7706 99.5791 36.3006 99.5891 35.5606C99.5991 34.5506 100.439 33.7406 100.089 32.2606C100.039 32.0706 99.6591 32.2006 99.5991 31.7506C99.5291 31.2006 99.6791 30.5206 99.6191 29.9406C99.8391 29.8606 100.059 30.1806 100.099 30.1806H100.119Z" fill="#403636"/>
<path d="M101.56 23.7199C101.56 24.4399 101.56 25.1599 101.56 25.8699L101.09 25.1499C101.17 25.9499 100.97 26.9099 101.07 27.6699C101.14 28.2199 101.66 28.0499 101.78 28.4099C102.14 29.5399 101.77 31.1299 101.57 32.3199L101.33 34.9499C101.26 35.2099 101 35.6499 100.85 35.9099C100.53 34.9799 100.46 33.8999 100.64 32.6999C100.26 31.5799 100.32 30.6599 100.85 29.9299C100.64 27.8599 100.74 25.7799 100.85 23.7099C100.85 23.6599 101.07 23.5599 101.09 23.4699C101.36 22.9499 101.45 23.2399 101.57 23.7099L101.56 23.7199Z" fill="#544B4B"/>
<path d="M100.12 41.6701C100.81 41.5601 100.56 41.8401 100.6 42.3901C101.08 45.1901 100.99 48.4301 100.6 51.2401C100.45 51.1801 99.94 51.3101 99.88 51.2401C99.75 51.0901 99.9 47.8701 99.89 47.2801C99.88 46.6901 99.61 46.1801 99.63 45.6201C99.65 44.7201 100.32 44.1901 100.38 43.4601C100.43 42.8201 100.13 42.2601 100.12 41.6601V41.6701Z" fill="#3F3535"/>
<path d="M102.761 86.6506C101.781 86.9006 102.681 85.5706 102.041 85.4506C101.961 86.2506 102.141 87.1806 102.041 87.9706C102.001 88.3206 101.851 88.7206 101.561 88.3206L101.061 82.4606L101.561 81.3906C101.461 82.6106 101.751 83.8006 102.041 84.9806C102.731 84.7706 101.711 83.0606 102.761 83.3106V86.6606V86.6506Z" fill="#817B7B"/>
<path d="M42.4395 47.65L44.1195 47.41L43.8795 46.94C44.9995 46.58 45.8695 47.27 46.6495 47.41C46.9295 47.46 50.3595 47.25 50.6595 47.18C50.8495 47.14 50.7195 46.75 51.1695 46.69C51.5795 46.63 52.0695 46.76 52.4995 46.71L51.2995 47.43C50.7695 47.68 50.0495 47.76 49.1495 47.67C47.2295 47.63 45.3095 47.73 43.4095 47.91C42.9995 47.89 42.6795 47.81 42.4495 47.67L42.4395 47.65Z" fill="#878181"/>
<path d="M35.4995 46.9306C36.2495 46.7606 37.5095 46.5206 38.2595 46.4606C38.5295 46.4306 39.5695 46.2606 39.5695 46.6906C38.2195 47.1206 36.5695 47.1806 35.2495 47.5206C33.4795 47.9706 31.1595 49.1406 29.5195 49.3306C29.5495 49.1306 29.5895 48.9606 29.6895 48.9106C30.7795 48.3506 34.0595 46.8506 35.0795 46.7106C35.2095 46.6906 35.3495 46.8006 35.4995 46.9406V46.9306Z" fill="#9D9898"/>
<path d="M101.561 23.7199L101.081 23.4799C101.531 21.4799 100.821 17.7299 101.081 15.4599C101.121 15.0999 101.131 14.7199 101.571 14.6299C101.551 17.6599 101.611 20.6999 101.571 23.7199H101.561Z" fill="#7E7777"/>
<path d="M96.5305 2.19043C96.6605 2.94043 96.3005 2.55043 95.9405 2.66043C94.7205 3.04043 93.0205 3.70043 91.8405 3.83043C91.3305 3.89043 90.8205 3.87043 90.3105 3.86043C90.1305 3.05043 90.8805 3.51043 91.3705 3.37043C92.0605 3.18043 92.2505 2.76043 93.1805 3.14043L92.9405 2.67043L96.5305 2.19043Z" fill="#857E7E"/>
<path d="M33.5806 46.93C34.2306 46.76 34.9306 46.34 35.6106 46.21L35.4906 46.93C33.4406 47.4 31.3206 48.28 29.5106 49.32C29.0506 49.37 28.7206 49.15 28.7906 48.6L33.5806 46.93Z" fill="#504747"/>
<path d="M35.2609 49.3305C32.3709 50.0505 29.6509 51.1405 26.8809 52.2005C29.0109 50.5905 31.9809 49.7905 34.5409 49.0905C35.0009 49.0105 35.2409 49.0905 35.2609 49.3305Z" fill="#706969"/>
<path d="M100.841 73.9707C101.211 74.0907 101.331 74.5007 101.211 75.2007L101.561 75.1707C101.541 75.8207 100.831 76.9107 101.791 77.3207C101.841 77.2907 101.791 76.8707 102.031 76.8407C102.311 77.2607 102.381 77.6607 102.031 78.0407H101.791C101.471 78.3107 101.201 78.7207 100.971 79.2807L100.591 79.2407C100.591 79.1607 100.591 79.0807 100.591 79.0007L100.351 76.1307C100.361 75.9707 100.331 75.8107 100.351 75.6507C100.391 75.2707 100.691 74.4007 100.831 73.9807L100.841 73.9707Z" fill="#453C3C"/>
<path d="M100.839 23.7204C100.839 24.7104 100.759 25.6604 100.599 26.5904L100.359 18.6904C100.799 18.7804 100.799 19.1604 100.849 19.5204C100.989 20.7604 100.829 22.4104 100.849 23.7204H100.839Z" fill="#837D7D"/>
<path d="M81.6905 3.62061C82.0305 3.57061 82.5705 3.15062 83.1305 3.38062C82.3905 4.24062 84.3005 3.70061 84.6105 3.59061C84.8005 3.53061 84.7805 3.22062 84.9805 3.16062C85.1105 3.12062 86.9005 2.63061 86.7105 3.26061C85.2505 3.57061 83.9605 4.33062 82.4505 4.51062C81.9905 4.57062 81.5605 4.83061 81.6805 4.10061C82.1105 3.75061 82.1105 3.59061 81.6805 3.62061H81.6905Z" fill="#635A5B"/>
<path d="M74.7498 3.38034C74.3098 2.71034 74.5298 2.99034 75.0398 2.84034C75.9298 2.56034 77.3298 2.15034 78.2398 2.16034C78.9498 2.16034 78.7898 2.81034 79.5398 2.67034C79.1298 3.52034 77.7898 2.86034 77.0398 2.90034C76.3498 2.93034 75.5998 3.28034 74.9898 3.39034C74.9098 3.60034 74.8298 3.60034 74.7498 3.39034V3.38034Z" fill="#726B6B"/>
<path d="M137.46 1.46996C137.36 1.94996 136.97 1.87996 136.62 1.93996C134.72 2.30996 132.47 2.30996 130.52 2.41996C130.56 2.06996 131.56 2.01996 131.87 1.96996C133.71 1.70996 135.62 1.62996 137.46 1.45996V1.46996Z" fill="#979292"/>
<path d="M60.6302 1.47043C60.0202 2.19043 61.4602 1.97043 61.3502 2.90043C60.0702 2.86043 59.3902 2.18043 58.0002 2.66043C57.8302 1.82043 58.7002 2.36043 59.2202 2.07043C59.4802 1.92043 59.1702 1.48043 59.2002 1.47043C59.2602 1.43043 60.5802 1.43043 60.6402 1.47043H60.6302Z" fill="#686161"/>
<path d="M101.561 47.89L101.801 45.5C101.511 47.57 102.221 49.86 102.051 51.85C102.021 52.27 102.101 52.77 101.561 52.91C101.561 52.03 101.561 51.15 101.561 50.28C101.561 49.48 101.561 48.68 101.561 47.89Z" fill="#A8A3A4"/>
<path d="M166.43 1.4707H161.16V1.9507H166.43V1.4707Z" fill="#888383"/>
<path d="M35.0193 51.2402L33.1693 52.1402C32.1093 52.3202 31.0993 52.8702 30.1093 53.1602C29.7093 53.2802 29.6293 53.5402 29.2793 53.0402C31.1393 52.3502 33.0493 51.5102 35.0193 51.2502V51.2402Z" fill="#807A7A"/>
<path d="M101.8 78.0401L101.32 80.4301L100.85 80.1901C100.8 80.8201 100.91 81.4801 100.85 82.1101C100.41 81.4001 100.62 80.1501 100.61 79.2401C101.08 78.8001 101 77.4701 101.81 78.0401H101.8Z" fill="#7A7474"/>
<path d="M122.021 2.67029C122.381 2.66029 123.221 1.95029 123.581 2.91029C123.071 2.67029 122.281 3.15029 122.021 3.15029H118.551V2.67029C119.701 2.64029 120.871 2.71029 122.021 2.67029Z" fill="#736C6C"/>
<path d="M59.9098 49.0901L58.9498 49.3301C59.5698 50.2601 58.4498 49.5101 57.9898 49.5601L58.2298 49.0901C57.4998 49.0401 56.6698 48.9701 55.9598 48.8401C55.5698 48.7701 55.5498 49.0001 55.5998 48.3701L59.9098 49.0901Z" fill="#756E6E"/>
<path d="M101.259 65.0602L100.119 66.0702C99.9794 64.7602 100.089 63.8602 101.309 63.2002L101.249 65.0602H101.259Z" fill="#898383"/>
<path d="M39.3291 48.3706C38.3991 48.4806 36.2991 49.0706 35.2591 49.3306L34.5391 49.0906C35.9291 48.7106 37.9691 48.1306 39.3291 47.8906C39.9691 47.9706 39.9391 48.1906 39.3291 48.3706Z" fill="#878081"/>
<path d="M55.5996 45.5005C55.6196 45.9305 55.7196 46.0105 55.2496 45.9805C54.4296 45.9305 53.4596 45.6105 52.6096 45.5005C51.8096 45.4005 50.5396 45.8605 50.0996 45.0205L55.5996 45.5005Z" fill="#817B7B"/>
<path d="M100.361 57.7002V62.4902H100.121C100.211 62.1902 99.8809 61.8002 99.8809 61.6502V57.7002H100.361Z" fill="#958F8F"/>
<path d="M101.32 60.8106V56.2606C101.48 56.2406 101.8 56.5806 101.8 56.6206V60.4506C101.8 60.4506 101.48 60.8306 101.32 60.8106Z" fill="#746D6D"/>
<path d="M128.37 4.10059C128.77 4.40059 128.35 4.54059 128.02 4.58059C127.3 4.67059 126.39 4.55059 125.63 4.58059C124.95 4.60059 124.17 5.19059 123.59 4.46059L128.37 4.10059Z" fill="#6C6565"/>
<path d="M74.75 5.0604C74.79 5.6604 74.81 5.4704 74.39 5.5304C73.08 5.7204 71.74 5.7404 70.44 6.0104C70.33 5.3304 70.58 5.6104 70.99 5.5004C72.16 5.1804 73.53 5.0304 74.74 5.0604H74.75Z" fill="#7B7474"/>
<path d="M147.519 1.46981C146.449 1.88981 144.479 2.52981 143.449 1.82981C144.279 1.68981 145.109 1.61981 145.939 1.44981C146.509 1.32981 147.099 0.47981 147.519 1.46981Z" fill="#766F6F"/>
<path d="M101.56 75.1703L100.84 77.0803V73.9703C100.99 73.5103 101.11 72.7203 101.55 72.5303C101.54 73.4003 101.58 74.2903 101.55 75.1603L101.56 75.1703Z" fill="#837D7D"/>
<path d="M84.0907 1.23023C84.2207 1.98023 83.8507 1.59023 83.5007 1.70023C82.7107 1.95023 82.0207 2.33023 81.2207 1.94023L82.1807 1.46023L81.4607 0.990234L84.0907 1.23023Z" fill="#888282"/>
<path d="M87.6798 5.3007C87.7198 5.9007 87.7398 5.7107 87.3198 5.7707C86.2598 5.9307 85.1198 6.1407 84.0898 5.7707C84.1998 5.4607 85.3698 5.3507 85.6698 5.3207C86.3398 5.2607 87.0098 5.2907 87.6698 5.2907L87.6798 5.3007Z" fill="#8A8484"/>
<path d="M102.04 76.8403C102.86 76.7603 102.41 80.0003 102.52 80.6703C101.75 80.2503 102.04 78.8303 102.04 78.0403C102.04 77.6403 102.04 77.2403 102.04 76.8403Z" fill="#7E7878"/>
<path d="M121.191 1.23013C120.141 1.64013 119.431 1.73013 118.321 1.47013C117.901 1.14013 118.361 1.05013 118.681 1.00013C119.361 0.900125 120.921 0.500125 121.191 1.23013Z" fill="#5A5151"/>
<path d="M92.9402 27.7898L93.4202 31.3798C92.8002 31.4298 93.0202 31.4098 92.9502 31.0198C92.8102 30.2498 92.5402 29.0598 92.4902 28.3598C92.4502 27.8598 92.3202 27.7098 92.9402 27.7898Z" fill="#655E5E"/>
<path d="M52.7306 49.8001C51.4906 49.7301 50.2606 49.6401 49.0206 49.5601C48.5406 49.5301 48.3306 49.7401 48.4306 49.0801C49.7606 49.5601 51.7806 48.8301 52.7406 49.7901L52.7306 49.8001Z" fill="#7F7979"/>
<path d="M67.5705 52.1905L66.5205 51.9205L63.9805 50.5205C65.1905 50.5705 66.6905 51.3505 67.5705 52.1905Z" fill="#80797A"/>
<path d="M179.109 4.34066L175.519 4.58065C175.139 4.29065 175.519 4.14065 175.869 4.10065C176.539 4.02065 177.649 3.94066 178.339 3.91066C178.729 3.89066 178.989 3.89066 179.099 4.34066H179.109Z" fill="#625A5A"/>
<path d="M109.459 3.87001L107.369 4.52001L105.879 4.58001C105.829 3.95001 105.849 4.18001 106.239 4.11001C107.289 3.91001 108.399 3.82001 109.469 3.87001H109.459Z" fill="#969090"/>
<path d="M102.03 7.46004C102.17 7.58004 102.69 9.75004 101.56 9.12004V7.93004C101.12 7.84004 101.48 8.32004 101.2 8.41004C100.25 8.72004 101.22 6.78004 102.03 7.46004Z" fill="#7A7474"/>
<path d="M100.599 87.8502C99.7692 88.0402 100.209 87.0202 100.109 86.5202L100.839 84.7402L100.599 87.8502Z" fill="#857F7F"/>
<path d="M96.0492 1.23047C96.4292 1.52047 96.0492 1.67047 95.6992 1.71047C94.9492 1.80047 93.2892 2.01047 92.6992 1.59047L96.0492 1.23047Z" fill="#6E6666"/>
<path d="M180.79 1.7098C180.54 1.4298 180.05 1.5598 180.55 1.1098C181.29 0.439802 181.72 1.4398 182.71 0.999802C182.91 1.6398 181.98 1.5998 181.51 1.7198C181.27 1.9598 180.87 2.0998 180.79 1.7198V1.7098Z" fill="#5A5252"/>
<path d="M45.7906 49.5707C45.9406 50.5307 43.9706 49.8607 43.4006 50.0507C43.0806 48.6407 44.7906 49.9007 45.7906 49.5707Z" fill="#7D7777"/>
<path d="M141.529 2.42992C140.809 3.38992 139.009 2.70992 137.939 2.89992L139.759 2.44992L141.529 2.41992V2.42992Z" fill="#8D8787"/>
<path d="M140.09 0.52019L138.03 0.97019L136.5 1.00019C137.22 0.0401901 139.02 0.72019 140.09 0.53019V0.52019Z" fill="#817B7B"/>
<path d="M69.7307 2.41997L67.1007 2.65997C66.7007 2.34997 67.1307 2.22997 67.4607 2.17997C68.0207 2.10997 69.5407 1.78997 69.7407 2.40997L69.7307 2.41997Z" fill="#8D8887"/>
<path d="M148.71 4.58048C148.71 4.97048 147.88 5.06048 147.63 5.06048C146.9 5.08048 146.3 4.93048 145.6 4.81048C145.54 4.39048 146.14 4.58048 146.43 4.57048C147.19 4.54048 147.95 4.59048 148.71 4.57048V4.58048Z" fill="#686060"/>
<path d="M100.361 68.7098C100.311 67.9398 100.241 67.1298 101.071 66.7998C101.031 67.4698 101.401 68.7198 100.361 68.7098Z" fill="#7B7474"/>
<path d="M112.81 1.70985C112.16 1.64985 111.41 1.78985 110.77 1.70985C110.42 1.66985 110.03 1.52985 110.42 1.22985C110.95 1.40985 112.91 0.749846 112.81 1.70985C113.05 1.72985 113.8 1.82985 113.77 2.18985L111.38 2.42985C111.47 1.65985 112.76 2.23985 112.82 1.70985H112.81Z" fill="#726A6A"/>
<path d="M100.12 69.1906C99.1603 68.4706 99.8403 66.6706 99.6503 65.6006L100.12 69.1906Z" fill="#797373"/>
<path d="M102.76 71.8203C102.58 72.3703 103.23 74.1503 102.28 73.9703C102.46 73.4203 101.81 71.6403 102.76 71.8203Z" fill="#766F6F"/>
<path d="M78.1005 0.760742C78.1605 1.11074 77.6805 1.09074 77.4305 1.16074C76.7405 1.36074 75.9505 1.48074 75.2305 1.47074C75.7505 0.700742 77.2605 0.990742 78.1005 0.760742Z" fill="#A09B9B"/>
<path d="M48.4192 48.3701C48.5892 49.3101 46.8092 48.6701 46.2692 48.8501C46.0992 47.9101 47.8792 48.5501 48.4192 48.3701Z" fill="#726B6B"/>
<path d="M70.9193 3.63011C70.5093 4.46011 69.2693 4.00011 68.5293 4.10011C68.9293 3.38011 70.2293 3.68011 70.9193 3.63011Z" fill="#807A7A"/>
<path d="M181.98 3.15069C181.62 3.94069 180.51 3.55069 179.83 3.62069C179.66 2.68069 181.44 3.32069 181.98 3.15069Z" fill="#9F9A9A"/>
<path d="M55.3593 4.10067C55.5593 4.15067 57.0693 4.41067 56.5593 4.82067L54.8793 5.06067C54.8293 4.77067 54.9393 4.56067 55.1193 4.34067C54.8593 4.11067 54.9393 4.03067 55.3593 4.10067Z" fill="#716A6A"/>
<path d="M101.32 71.3399C100.5 70.9299 100.18 69.9899 101.2 69.6699L101.32 71.3399Z" fill="#7D7777"/>
<path d="M51.7696 0.990687L52.0096 2.90069C51.8096 2.78069 51.3396 2.69069 51.2796 2.50069C51.1996 2.20069 51.0696 0.680687 51.7696 0.990687Z" fill="#706969"/>
<path d="M98.2109 4.10058C97.9109 4.85058 96.9109 4.53058 96.3009 4.57058C96.1109 3.65058 97.6909 4.25058 98.2109 4.10058Z" fill="#4A4141"/>
<path d="M101.321 2.90006C101.211 2.22006 101.461 2.50006 101.881 2.39006C103.731 1.92006 102.861 3.28006 101.321 2.90006Z" fill="#7C7676"/>
<path d="M82.8896 63.68C82.6096 63.94 81.1996 62.52 81.4596 62.25C82.1496 62.48 82.6596 62.99 82.8896 63.68Z" fill="#5C5354"/>
<path d="M98.4505 3.62062C98.2905 3.65062 96.5305 4.31062 96.7705 3.50062C96.7905 3.42062 98.2405 3.16062 98.4505 3.14062C99.0905 3.22062 99.0605 3.44062 98.4505 3.62062Z" fill="#4A4141"/>
<path d="M109.46 2.19073L107.31 2.66073C107.14 1.72073 108.92 2.36073 109.46 2.19073Z" fill="#655D5D"/>
<path d="M14.6793 56.9798C14.3293 56.6298 15.8393 55.6698 16.1093 55.5498C16.3693 55.8398 14.9393 57.2498 14.6793 56.9798Z" fill="#5A5253"/>
<path d="M57.2793 1.47C56.7593 1.32 55.1793 1.91 55.3693 1C55.9393 1.17 56.9993 0.79 57.2793 1.47Z" fill="#686161"/>
<path d="M61.8308 49.8102C62.2208 50.6502 60.2208 50.1102 60.1508 50.0502C59.3808 49.3202 61.7308 49.8202 61.8308 49.8102Z" fill="#868080"/>
<path d="M101.319 34.9698C100.939 34.2098 101.429 33.0998 101.559 32.3398C101.629 33.3498 101.589 34.0398 101.319 34.9698Z" fill="#878181"/>
<path d="M93.4203 34.0098C92.5303 34.2098 93.0803 32.8398 92.9403 32.3398L93.4203 34.0098Z" fill="#645C5C"/>
<path d="M90.3106 5.06055C90.5106 5.95055 89.1406 5.40055 88.6406 5.53055L90.3106 5.06055Z" fill="#6F6767"/>
<path d="M63.5003 2.19043H62.0703V2.67043H63.5003V2.19043Z" fill="#6F6767"/>
<path d="M66.6097 49.8006C66.1097 49.8406 65.6497 49.5906 65.2197 49.3906C64.8797 49.2306 64.5597 49.5406 64.6997 48.8506L66.6097 49.8006Z" fill="#635B5B"/>
<path d="M117.59 1.23047H116.16V1.71047H117.59V1.23047Z" fill="#625A5A"/>
<path d="M55.1205 1.47C55.2405 2.3 54.8605 1.77 54.6705 1.83C54.2605 1.96 54.0705 2.17 53.6905 2.18C53.6305 1.34 54.4905 1.42 55.1205 1.46V1.47Z" fill="#8B8586"/>
<path d="M66.1392 1.71064C66.4092 1.92064 65.3192 2.85064 64.6992 2.42064C64.7392 1.99064 65.9092 1.54064 66.1392 1.71064Z" fill="#5B5353"/>
<path d="M67.5695 3.87023C67.6295 4.29023 67.0295 4.09023 66.7395 4.11023C66.0595 4.14023 65.3795 4.09023 64.6995 4.11023C64.6395 3.69023 65.2395 3.89023 65.5295 3.87023C66.2095 3.84023 66.8895 3.89023 67.5695 3.87023Z" fill="#9E9999"/>
<path d="M74.7505 3.38063C74.8305 3.37063 74.9105 3.39063 74.9905 3.38063C75.1805 4.21063 74.1405 3.76063 73.5605 3.86063V3.38063C73.9405 3.33063 74.4006 3.44063 74.7606 3.38063H74.7505Z" fill="#7B7474"/>
<path d="M174.32 3.37994C173.8 3.20994 172.47 4.13994 172.64 3.13994C173.22 3.23994 174.03 2.55994 174.32 3.37994Z" fill="#675F5F"/>
<path d="M161.16 2.43066C160.93 3.10066 159.92 3.09066 159.49 2.55066L161.16 2.43066Z" fill="#8A8484"/>
<path d="M58.9593 47.41C58.9593 47.82 59.0893 47.93 58.6193 47.87C56.7693 47.64 57.2693 46.9 58.9593 47.41Z" fill="#655D5D"/>
<path d="M72.8394 52.2003C72.6194 52.9103 71.0394 51.8303 71.4094 51.4803C71.6794 51.2203 72.4294 52.2903 72.8394 52.2003Z" fill="#5D5555"/>
<path d="M101.08 39.9898L100.84 40.4698H100.61C100.38 39.8998 100.83 39.1798 100.85 38.7998C101.21 39.1498 101.05 39.5798 101.09 39.9998L101.08 39.9898Z" fill="#3F3535"/>
<path d="M83.6092 5.54004C83.7792 6.47004 82.1592 5.85004 81.6992 6.01004L83.6092 5.54004Z" fill="#777170"/>
<path d="M159 3.62009H157.57V3.15009C158.09 3.14009 158.82 3.02009 159 3.62009Z" fill="#655D5D"/>
<path d="M98.4492 3.15046C98.7292 3.12046 100.129 3.07046 100.129 3.27046C99.6692 3.61046 98.9792 3.54046 98.4492 3.63046V3.15046Z" fill="#969191"/>
<path d="M42.2005 48.1299C41.4605 48.2199 40.5805 48.2699 39.8105 48.3699C40.3805 47.8599 41.4505 48.2299 42.2005 48.1299Z" fill="#878081"/>
<path d="M94.6206 37.1201H94.1406V38.3101H94.6206V37.1201Z" fill="#6D6565"/>
<path d="M93.4194 14.8701H92.9395V16.0601H93.4194V14.8701Z" fill="#787171"/>
<path d="M104.43 4.10059H103.24V4.58059H104.43V4.10059Z" fill="#716A6A"/>
<path d="M55.3602 4.10048C55.3602 4.26048 55.1702 4.28048 55.1202 4.34048H54.1602V3.86048C54.6802 3.66048 55.0402 4.02048 55.3602 4.10048Z" fill="#767070"/>
<path d="M181.5 1.71049C181.27 2.39049 180.44 2.18049 179.83 2.19049V1.96049C180.19 2.02049 180.5 1.78049 180.79 1.72049C181 1.67049 181.31 1.77049 181.51 1.72049L181.5 1.71049Z" fill="#959190"/>
<path d="M71.6394 2.19043C71.9594 2.34043 69.8794 3.24043 70.2094 2.19043H71.6394Z" fill="#A4A0A0"/>
<path d="M100.6 78.9999C100.21 78.3299 100.3 76.9699 100.36 76.1299C100.8 76.8399 100.59 78.0999 100.6 78.9999Z" fill="#7A7474"/>
</g>
<defs>
<clipPath id="clip0_3100_706">
<rect width="185.57" height="95.05" fill="white"/>
</clipPath>
</defs>
</svg>
